STARTFONT 2.1
FONT -DEC-VT220-medium-r-Normal-136col-60-600-75-75-m-180-iso10646-1
SIZE 60 75 75
FONTBOUNDINGBOX 18 60 0 -12
STARTPROPERTIES 22
FONTNAME_REGISTRY ""
FOUNDRY "DEC"
FAMILY_NAME "vt220"
WEIGHT_NAME "medium"
RELATIVE_SETWIDTH 10
SLANT r
SETWIDTH_NAME "Normal"
ADD_STYLE_NAME "136col"
PIXEL_SIZE 60
POINT_SIZE 600
RESOLUTION_X 75
RESOLUTION_Y 75
SPACING "m"
CHARSET_REGISTRY "ISO10646"
CHARSET_ENCODING "1"
CAP_HEIGHT 42
X_HEIGHT 30
WEIGHT 10
QUAD_WIDTH 18
DEFAULT_CHAR 9670
FONT_ASCENT 48
FONT_DESCENT 12
AVERAGE_WIDTH 180
ENDPROPERTIES
CHARS 288
STARTCHAR U+00FD
ENCODING 253
SWIDTH 1000 0
BBX 18 60 0 -12
DWIDTH 18 0
BITMAP
000000
000000
000000
000000
000000
000000
F0F000
F0F000
F0F000
F0F000
F0F000
F0F000
FCF000
FCF000
FCF000
FCF000
FCF000
FCF000
FFF000
FFF000
FFF000
FFF000
FFF000
FFF000
F3F000
F3F000
F3F000
F3F000
F3F000
F3F000
F3FF00
F3FF00
F3FF00
F3FF00
F3FF00
F3FF00
03CF00
03CF00
03CF00
03CF00
03CF00
03CF00
03CF00
03CF00
03CF00
03CF00
03CF00
03CF00
03CF00
03CF00
03CF00
03CF00
03CF00
03CF00
00FC00
00FC00
00FC00
00FC00
00FC00
00FC00
ENDCHAR
STARTCHAR U+25A1
ENCODING 9633
SWIDTH 1000 0
BBX 18 60 0 -12
DWIDTH 18 0
BITMAP
000000
000000
000000
000000
000000
000000
FFFF00
FFFF00
FFFF00
FFFF00
FFFF00
FFFF00
F00F00
F00F00
F00F00
F00F00
F00F00
F00F00
F00F00
F00F00
F00F00
F00F00
F00F00
F00F00
F00F00
F00F00
F00F00
F00F00
F00F00
F00F00
F00F00
F00F00
F00F00
F00F00
F00F00
F00F00
F00F00
F00F00
F00F00
F00F00
F00F00
F00F00
FFFF00
FFFF00
FFFF00
FFFF00
FFFF00
FFFF00
000000
000000
000000
000000
000000
000000
000000
000000
000000
000000
000000
000000
ENDCHAR
STARTCHAR U+00FE
ENCODING 254
SWIDTH 1000 0
BBX 18 60 0 -12
DWIDTH 18 0
BITMAP
000000
000000
000000
000000
000000
000000
FFC000
FFC000
FFC000
FFC000
FFC000
FFC000
F00000
F00000
F00000
F00000
F00000
F00000
FF0000
FF0000
FF0000
FF0000
FF0000
FF0000
F00000
F00000
F00000
F00000
F00000
F00000
F3FF00
F3FF00
F3FF00
F3FF00
F3FF00
F3FF00
03C000
03C000
03C000
03C000
03C000
03C000
03FC00
03FC00
03FC00
03FC00
03FC00
03FC00
03C000
03C000
03C000
03C000
03C000
03C000
03FF00
03FF00
03FF00
03FF00
03FF00
03FF00
ENDCHAR
STARTCHAR U+00FF
ENCODING 255
SWIDTH 1000 0
BBX 18 60 0 -12
DWIDTH 18 0
BITMAP
000000
000000
000000
000000
000000
000000
3C3C00
3C3C00
3C3C00
3C3C00
3C3C00
3C3C00
000000
000000
000000
000000
000000
000000
F03C00
F03C00
F03C00
F03C00
F03C00
F03C00
F03C00
F03C00
F03C00
F03C00
F03C00
F03C00
F0FC00
F0FC00
F0FC00
F0FC00
F0FC00
F0FC00
3FFC00
3FFC00
3FFC00
3FFC00
3FFC00
3FFC00
003C00
003C00
003C00
003C00
003C00
003C00
F03C00
F03C00
F03C00
F03C00
F03C00
F03C00
3FF000
3FF000
3FF000
3FF000
3FF000
3FF000
ENDCHAR
STARTCHAR U+00FC
ENCODING 252
SWIDTH 1000 0
BBX 18 60 0 -12
DWIDTH 18 0
BITMAP
000000
000000
000000
000000
000000
000000
3C3C00
3C3C00
3C3C00
3C3C00
3C3C00
3C3C00
000000
000000
000000
000000
000000
000000
F03C00
F03C00
F03C00
F03C00
F03C00
F03C00
F03C00
F03C00
F03C00
F03C00
F03C00
F03C00
F03C00
F03C00
F03C00
F03C00
F03C00
F03C00
F03C00
F03C00
F03C00
F03C00
F03C00
F03C00
3FFF00
3FFF00
3FFF00
3FFF00
3FFF00
3FFF00
000000
000000
000000
000000
000000
000000
000000
000000
000000
000000
000000
000000
ENDCHAR
STARTCHAR U+00FB
ENCODING 251
SWIDTH 1000 0
BBX 18 60 0 -12
DWIDTH 18 0
BITMAP
0FF000
0FF000
0FF000
0FF000
0FF000
0FF000
3C3C00
3C3C00
3C3C00
3C3C00
3C3C00
3C3C00
000000
000000
000000
000000
000000
000000
F03C00
F03C00
F03C00
F03C00
F03C00
F03C00
F03C00
F03C00
F03C00
F03C00
F03C00
F03C00
F03C00
F03C00
F03C00
F03C00
F03C00
F03C00
F03C00
F03C00
F03C00
F03C00
F03C00
F03C00
3FFF00
3FFF00
3FFF00
3FFF00
3FFF00
3FFF00
000000
000000
000000
000000
000000
000000
000000
000000
000000
000000
000000
000000
ENDCHAR
STARTCHAR U+00FA
ENCODING 250
SWIDTH 1000 0
BBX 18 60 0 -12
DWIDTH 18 0
BITMAP
000000
000000
000000
000000
000000
000000
03F000
03F000
03F000
03F000
03F000
03F000
3F0000
3F0000
3F0000
3F0000
3F0000
3F0000
F03C00
F03C00
F03C00
F03C00
F03C00
F03C00
F03C00
F03C00
F03C00
F03C00
F03C00
F03C00
F03C00
F03C00
F03C00
F03C00
F03C00
F03C00
F03C00
F03C00
F03C00
F03C00
F03C00
F03C00
3FFF00
3FFF00
3FFF00
3FFF00
3FFF00
3FFF00
000000
000000
000000
000000
000000
000000
000000
000000
000000
000000
000000
000000
ENDCHAR
STARTCHAR U+00F9
ENCODING 249
SWIDTH 1000 0
BBX 18 60 0 -12
DWIDTH 18 0
BITMAP
000000
000000
000000
000000
000000
000000
3F0000
3F0000
3F0000
3F0000
3F0000
3F0000
03F000
03F000
03F000
03F000
03F000
03F000
F03C00
F03C00
F03C00
F03C00
F03C00
F03C00
F03C00
F03C00
F03C00
F03C00
F03C00
F03C00
F03C00
F03C00
F03C00
F03C00
F03C00
F03C00
F03C00
F03C00
F03C00
F03C00
F03C00
F03C00
3FFF00
3FFF00
3FFF00
3FFF00
3FFF00
3FFF00
000000
000000
000000
000000
000000
000000
000000
000000
000000
000000
000000
000000
ENDCHAR
STARTCHAR U+00F8
ENCODING 248
SWIDTH 1000 0
BBX 18 60 0 -12
DWIDTH 18 0
BITMAP
000000
000000
000000
000000
000000
000000
000000
000000
000000
000000
000000
000000
000F00
000F00
000F00
000F00
000F00
000F00
3FFC00
3FFC00
3FFC00
3FFC00
3FFC00
3FFC00
F0FF00
F0FF00
F0FF00
F0FF00
F0FF00
F0FF00
F3CF00
F3CF00
F3CF00
F3CF00
F3CF00
F3CF00
FF0F00
FF0F00
FF0F00
FF0F00
FF0F00
FF0F00
3FFC00
3FFC00
3FFC00
3FFC00
3FFC00
3FFC00
F00000
F00000
F00000
F00000
F00000
F00000
000000
000000
000000
000000
000000
000000
ENDCHAR
STARTCHAR U+0152
ENCODING 338
SWIDTH 1000 0
BBX 18 60 0 -12
DWIDTH 18 0
BITMAP
000000
000000
000000
000000
000000
000000
000000
000000
000000
000000
000000
000000
000000
000000
000000
000000
000000
000000
3FFC00
3FFC00
3FFC00
3FFC00
3FFC00
3FFC00
F3CF00
F3CF00
F3CF00
F3CF00
F3CF00
F3CF00
F3FF00
F3FF00
F3FF00
F3FF00
F3FF00
F3FF00
F3C000
F3C000
F3C000
F3C000
F3C000
F3C000
3FFF00
3FFF00
3FFF00
3FFF00
3FFF00
3FFF00
000000
000000
000000
000000
000000
000000
000000
000000
000000
000000
000000
000000
ENDCHAR
STARTCHAR U+00F6
ENCODING 246
SWIDTH 1000 0
BBX 18 60 0 -12
DWIDTH 18 0
BITMAP
000000
000000
000000
000000
000000
000000
3C3C00
3C3C00
3C3C00
3C3C00
3C3C00
3C3C00
000000
000000
000000
000000
000000
000000
3FFC00
3FFC00
3FFC00
3FFC00
3FFC00
3FFC00
F00F00
F00F00
F00F00
F00F00
F00F00
F00F00
F00F00
F00F00
F00F00
F00F00
F00F00
F00F00
F00F00
F00F00
F00F00
F00F00
F00F00
F00F00
3FFC00
3FFC00
3FFC00
3FFC00
3FFC00
3FFC00
000000
000000
000000
000000
000000
000000
000000
000000
000000
000000
000000
000000
ENDCHAR
STARTCHAR U+00F5
ENCODING 245
SWIDTH 1000 0
BBX 18 60 0 -12
DWIDTH 18 0
BITMAP
3F3C00
3F3C00
3F3C00
3F3C00
3F3C00
3F3C00
F3F000
F3F000
F3F000
F3F000
F3F000
F3F000
000000
000000
000000
000000
000000
000000
3FFC00
3FFC00
3FFC00
3FFC00
3FFC00
3FFC00
F00F00
F00F00
F00F00
F00F00
F00F00
F00F00
F00F00
F00F00
F00F00
F00F00
F00F00
F00F00
F00F00
F00F00
F00F00
F00F00
F00F00
F00F00
3FFC00
3FFC00
3FFC00
3FFC00
3FFC00
3FFC00
000000
000000
000000
000000
000000
000000
000000
000000
000000
000000
000000
000000
ENDCHAR
STARTCHAR U+00F4
ENCODING 244
SWIDTH 1000 0
BBX 18 60 0 -12
DWIDTH 18 0
BITMAP
0FF000
0FF000
0FF000
0FF000
0FF000
0FF000
3C3C00
3C3C00
3C3C00
3C3C00
3C3C00
3C3C00
000000
000000
000000
000000
000000
000000
3FFC00
3FFC00
3FFC00
3FFC00
3FFC00
3FFC00
F00F00
F00F00
F00F00
F00F00
F00F00
F00F00
F00F00
F00F00
F00F00
F00F00
F00F00
F00F00
F00F00
F00F00
F00F00
F00F00
F00F00
F00F00
3FFC00
3FFC00
3FFC00
3FFC00
3FFC00
3FFC00
000000
000000
000000
000000
000000
000000
000000
000000
000000
000000
000000
000000
ENDCHAR
STARTCHAR U+00F3
ENCODING 243
SWIDTH 1000 0
BBX 18 60 0 -12
DWIDTH 18 0
BITMAP
000000
000000
000000
000000
000000
000000
03F000
03F000
03F000
03F000
03F000
03F000
3F0000
3F0000
3F0000
3F0000
3F0000
3F0000
3FFC00
3FFC00
3FFC00
3FFC00
3FFC00
3FFC00
F00F00
F00F00
F00F00
F00F00
F00F00
F00F00
F00F00
F00F00
F00F00
F00F00
F00F00
F00F00
F00F00
F00F00
F00F00
F00F00
F00F00
F00F00
3FFC00
3FFC00
3FFC00
3FFC00
3FFC00
3FFC00
000000
000000
000000
000000
000000
000000
000000
000000
000000
000000
000000
000000
ENDCHAR
STARTCHAR U+00F2
ENCODING 242
SWIDTH 1000 0
BBX 18 60 0 -12
DWIDTH 18 0
BITMAP
000000
000000
000000
000000
000000
000000
0FC000
0FC000
0FC000
0FC000
0FC000
0FC000
00FC00
00FC00
00FC00
00FC00
00FC00
00FC00
3FFC00
3FFC00
3FFC00
3FFC00
3FFC00
3FFC00
F00F00
F00F00
F00F00
F00F00
F00F00
F00F00
F00F00
F00F00
F00F00
F00F00
F00F00
F00F00
F00F00
F00F00
F00F00
F00F00
F00F00
F00F00
3FFC00
3FFC00
3FFC00
3FFC00
3FFC00
3FFC00
000000
000000
000000
000000
000000
000000
000000
000000
000000
000000
000000
000000
ENDCHAR
STARTCHAR U+00F1
ENCODING 241
SWIDTH 1000 0
BBX 18 60 0 -12
DWIDTH 18 0
BITMAP
3F3C00
3F3C00
3F3C00
3F3C00
3F3C00
3F3C00
F3F000
F3F000
F3F000
F3F000
F3F000
F3F000
000000
000000
000000
000000
000000
000000
FFFC00
FFFC00
FFFC00
FFFC00
FFFC00
FFFC00
FC0F00
FC0F00
FC0F00
FC0F00
FC0F00
FC0F00
F00F00
F00F00
F00F00
F00F00
F00F00
F00F00
F00F00
F00F00
F00F00
F00F00
F00F00
F00F00
F00F00
F00F00
F00F00
F00F00
F00F00
F00F00
000000
000000
000000
000000
000000
000000
000000
000000
000000
000000
000000
000000
ENDCHAR
STARTCHAR U+00F0
ENCODING 240
SWIDTH 1000 0
BBX 18 60 0 -12
DWIDTH 18 0
BITMAP
000000
000000
000000
000000
000000
000000
FFC000
FFC000
FFC000
FFC000
FFC000
FFC000
F00000
F00000
F00000
F00000
F00000
F00000
FF0000
FF0000
FF0000
FF0000
FF0000
FF0000
F00000
F00000
F00000
F00000
F00000
F00000
F0FC00
F0FC00
F0FC00
F0FC00
F0FC00
F0FC00
03CF00
03CF00
03CF00
03CF00
03CF00
03CF00
03CF00
03CF00
03CF00
03CF00
03CF00
03CF00
03CF00
03CF00
03CF00
03CF00
03CF00
03CF00
00FC00
00FC00
00FC00
00FC00
00FC00
00FC00
ENDCHAR
STARTCHAR U+00EF
ENCODING 239
SWIDTH 1000 0
BBX 18 60 0 -12
DWIDTH 18 0
BITMAP
000000
000000
000000
000000
000000
000000
3C3C00
3C3C00
3C3C00
3C3C00
3C3C00
3C3C00
000000
000000
000000
000000
000000
000000
0FC000
0FC000
0FC000
0FC000
0FC000
0FC000
03C000
03C000
03C000
03C000
03C000
03C000
03C000
03C000
03C000
03C000
03C000
03C000
03C000
03C000
03C000
03C000
03C000
03C000
3FFC00
3FFC00
3FFC00
3FFC00
3FFC00
3FFC00
000000
000000
000000
000000
000000
000000
000000
000000
000000
000000
000000
000000
ENDCHAR
STARTCHAR U+00EE
ENCODING 238
SWIDTH 1000 0
BBX 18 60 0 -12
DWIDTH 18 0
BITMAP
0FF000
0FF000
0FF000
0FF000
0FF000
0FF000
3C3C00
3C3C00
3C3C00
3C3C00
3C3C00
3C3C00
000000
000000
000000
000000
000000
000000
0FC000
0FC000
0FC000
0FC000
0FC000
0FC000
03C000
03C000
03C000
03C000
03C000
03C000
03C000
03C000
03C000
03C000
03C000
03C000
03C000
03C000
03C000
03C000
03C000
03C000
3FFC00
3FFC00
3FFC00
3FFC00
3FFC00
3FFC00
000000
000000
000000
000000
000000
000000
000000
000000
000000
000000
000000
000000
ENDCHAR
STARTCHAR U+00ED
ENCODING 237
SWIDTH 1000 0
BBX 18 60 0 -12
DWIDTH 18 0
BITMAP
000000
000000
000000
000000
000000
000000
03F000
03F000
03F000
03F000
03F000
03F000
3F0000
3F0000
3F0000
3F0000
3F0000
3F0000
0FC000
0FC000
0FC000
0FC000
0FC000
0FC000
03C000
03C000
03C000
03C000
03C000
03C000
03C000
03C000
03C000
03C000
03C000
03C000
03C000
03C000
03C000
03C000
03C000
03C000
3FFC00
3FFC00
3FFC00
3FFC00
3FFC00
3FFC00
000000
000000
000000
000000
000000
000000
000000
000000
000000
000000
000000
000000
ENDCHAR
STARTCHAR U+00EC
ENCODING 236
SWIDTH 1000 0
BBX 18 60 0 -12
DWIDTH 18 0
BITMAP
000000
000000
000000
000000
000000
000000
3F0000
3F0000
3F0000
3F0000
3F0000
3F0000
03F000
03F000
03F000
03F000
03F000
03F000
0FC000
0FC000
0FC000
0FC000
0FC000
0FC000
03C000
03C000
03C000
03C000
03C000
03C000
03C000
03C000
03C000
03C000
03C000
03C000
03C000
03C000
03C000
03C000
03C000
03C000
3FFC00
3FFC00
3FFC00
3FFC00
3FFC00
3FFC00
000000
000000
000000
000000
000000
000000
000000
000000
000000
000000
000000
000000
ENDCHAR
STARTCHAR U+00EB
ENCODING 235
SWIDTH 1000 0
BBX 18 60 0 -12
DWIDTH 18 0
BITMAP
000000
000000
000000
000000
000000
000000
3C3C00
3C3C00
3C3C00
3C3C00
3C3C00
3C3C00
000000
000000
000000
000000
000000
000000
3FFC00
3FFC00
3FFC00
3FFC00
3FFC00
3FFC00
F00F00
F00F00
F00F00
F00F00
F00F00
F00F00
FFFF00
FFFF00
FFFF00
FFFF00
FFFF00
FFFF00
F00000
F00000
F00000
F00000
F00000
F00000
3FFC00
3FFC00
3FFC00
3FFC00
3FFC00
3FFC00
000000
000000
000000
000000
000000
000000
000000
000000
000000
000000
000000
000000
ENDCHAR
STARTCHAR U+00EA
ENCODING 234
SWIDTH 1000 0
BBX 18 60 0 -12
DWIDTH 18 0
BITMAP
0FF000
0FF000
0FF000
0FF000
0FF000
0FF000
3C3C00
3C3C00
3C3C00
3C3C00
3C3C00
3C3C00
000000
000000
000000
000000
000000
000000
3FFC00
3FFC00
3FFC00
3FFC00
3FFC00
3FFC00
F00F00
F00F00
F00F00
F00F00
F00F00
F00F00
FFFF00
FFFF00
FFFF00
FFFF00
FFFF00
FFFF00
F00000
F00000
F00000
F00000
F00000
F00000
3FFC00
3FFC00
3FFC00
3FFC00
3FFC00
3FFC00
000000
000000
000000
000000
000000
000000
000000
000000
000000
000000
000000
000000
ENDCHAR
STARTCHAR U+00E9
ENCODING 233
SWIDTH 1000 0
BBX 18 60 0 -12
DWIDTH 18 0
BITMAP
000000
000000
000000
000000
000000
000000
03F000
03F000
03F000
03F000
03F000
03F000
3F0000
3F0000
3F0000
3F0000
3F0000
3F0000
3FFC00
3FFC00
3FFC00
3FFC00
3FFC00
3FFC00
F00F00
F00F00
F00F00
F00F00
F00F00
F00F00
FFFF00
FFFF00
FFFF00
FFFF00
FFFF00
FFFF00
F00000
F00000
F00000
F00000
F00000
F00000
3FFC00
3FFC00
3FFC00
3FFC00
3FFC00
3FFC00
000000
000000
000000
000000
000000
000000
000000
000000
000000
000000
000000
000000
ENDCHAR
STARTCHAR U+00E8
ENCODING 232
SWIDTH 1000 0
BBX 18 60 0 -12
DWIDTH 18 0
BITMAP
000000
000000
000000
000000
000000
000000
0FC000
0FC000
0FC000
0FC000
0FC000
0FC000
00FC00
00FC00
00FC00
00FC00
00FC00
00FC00
3FFC00
3FFC00
3FFC00
3FFC00
3FFC00
3FFC00
F00F00
F00F00
F00F00
F00F00
F00F00
F00F00
FFFF00
FFFF00
FFFF00
FFFF00
FFFF00
FFFF00
F00000
F00000
F00000
F00000
F00000
F00000
3FFC00
3FFC00
3FFC00
3FFC00
3FFC00
3FFC00
000000
000000
000000
000000
000000
000000
000000
000000
000000
000000
000000
000000
ENDCHAR
STARTCHAR U+00E7
ENCODING 231
SWIDTH 1000 0
BBX 18 60 0 -12
DWIDTH 18 0
BITMAP
000000
000000
000000
000000
000000
000000
000000
000000
000000
000000
000000
000000
000000
000000
000000
000000
000000
000000
3FFC00
3FFC00
3FFC00
3FFC00
3FFC00
3FFC00
F00F00
F00F00
F00F00
F00F00
F00F00
F00F00
F00000
F00000
F00000
F00000
F00000
F00000
F00F00
F00F00
F00F00
F00F00
F00F00
F00F00
3FFC00
3FFC00
3FFC00
3FFC00
3FFC00
3FFC00
00F000
00F000
00F000
00F000
00F000
00F000
0FF000
0FF000
0FF000
0FF000
0FF000
0FF000
ENDCHAR
STARTCHAR U+00E6
ENCODING 230
SWIDTH 1000 0
BBX 18 60 0 -12
DWIDTH 18 0
BITMAP
000000
000000
000000
000000
000000
000000
000000
000000
000000
000000
000000
000000
000000
000000
000000
000000
000000
000000
3FFC00
3FFC00
3FFC00
3FFC00
3FFC00
3FFC00
03CF00
03CF00
03CF00
03CF00
03CF00
03CF00
3FFF00
3FFF00
3FFF00
3FFF00
3FFF00
3FFF00
F3C000
F3C000
F3C000
F3C000
F3C000
F3C000
3FFF00
3FFF00
3FFF00
3FFF00
3FFF00
3FFF00
000000
000000
000000
000000
000000
000000
000000
000000
000000
000000
000000
000000
ENDCHAR
STARTCHAR U+00E5
ENCODING 229
SWIDTH 1000 0
BBX 18 60 0 -12
DWIDTH 18 0
BITMAP
0FF000
0FF000
0FF000
0FF000
0FF000
0FF000
3C3C00
3C3C00
3C3C00
3C3C00
3C3C00
3C3C00
0FF000
0FF000
0FF000
0FF000
0FF000
0FF000
3FFC00
3FFC00
3FFC00
3FFC00
3FFC00
3FFC00
000F00
000F00
000F00
000F00
000F00
000F00
3FFF00
3FFF00
3FFF00
3FFF00
3FFF00
3FFF00
F03F00
F03F00
F03F00
F03F00
F03F00
F03F00
3FFF00
3FFF00
3FFF00
3FFF00
3FFF00
3FFF00
000000
000000
000000
000000
000000
000000
000000
000000
000000
000000
000000
000000
ENDCHAR
STARTCHAR U+00E4
ENCODING 228
SWIDTH 1000 0
BBX 18 60 0 -12
DWIDTH 18 0
BITMAP
000000
000000
000000
000000
000000
000000
3C3C00
3C3C00
3C3C00
3C3C00
3C3C00
3C3C00
000000
000000
000000
000000
000000
000000
3FFC00
3FFC00
3FFC00
3FFC00
3FFC00
3FFC00
000F00
000F00
000F00
000F00
000F00
000F00
3FFF00
3FFF00
3FFF00
3FFF00
3FFF00
3FFF00
F03F00
F03F00
F03F00
F03F00
F03F00
F03F00
3FFF00
3FFF00
3FFF00
3FFF00
3FFF00
3FFF00
000000
000000
000000
000000
000000
000000
000000
000000
000000
000000
000000
000000
ENDCHAR
STARTCHAR U+00E3
ENCODING 227
SWIDTH 1000 0
BBX 18 60 0 -12
DWIDTH 18 0
BITMAP
0FCF00
0FCF00
0FCF00
0FCF00
0FCF00
0FCF00
3CFC00
3CFC00
3CFC00
3CFC00
3CFC00
3CFC00
000000
000000
000000
000000
000000
000000
3FFC00
3FFC00
3FFC00
3FFC00
3FFC00
3FFC00
000F00
000F00
000F00
000F00
000F00
000F00
3FFF00
3FFF00
3FFF00
3FFF00
3FFF00
3FFF00
F03F00
F03F00
F03F00
F03F00
F03F00
F03F00
3FFF00
3FFF00
3FFF00
3FFF00
3FFF00
3FFF00
000000
000000
000000
000000
000000
000000
000000
000000
000000
000000
000000
000000
ENDCHAR
STARTCHAR U+00E2
ENCODING 226
SWIDTH 1000 0
BBX 18 60 0 -12
DWIDTH 18 0
BITMAP
0FF000
0FF000
0FF000
0FF000
0FF000
0FF000
3C3C00
3C3C00
3C3C00
3C3C00
3C3C00
3C3C00
000000
000000
000000
000000
000000
000000
3FFC00
3FFC00
3FFC00
3FFC00
3FFC00
3FFC00
000F00
000F00
000F00
000F00
000F00
000F00
3FFF00
3FFF00
3FFF00
3FFF00
3FFF00
3FFF00
F03F00
F03F00
F03F00
F03F00
F03F00
F03F00
3FFF00
3FFF00
3FFF00
3FFF00
3FFF00
3FFF00
000000
000000
000000
000000
000000
000000
000000
000000
000000
000000
000000
000000
ENDCHAR
STARTCHAR U+00E1
ENCODING 225
SWIDTH 1000 0
BBX 18 60 0 -12
DWIDTH 18 0
BITMAP
000000
000000
000000
000000
000000
000000
03F000
03F000
03F000
03F000
03F000
03F000
3F0000
3F0000
3F0000
3F0000
3F0000
3F0000
3FFC00
3FFC00
3FFC00
3FFC00
3FFC00
3FFC00
000F00
000F00
000F00
000F00
000F00
000F00
3FFF00
3FFF00
3FFF00
3FFF00
3FFF00
3FFF00
F03F00
F03F00
F03F00
F03F00
F03F00
F03F00
3FFF00
3FFF00
3FFF00
3FFF00
3FFF00
3FFF00
000000
000000
000000
000000
000000
000000
000000
000000
000000
000000
000000
000000
ENDCHAR
STARTCHAR U+00E0
ENCODING 224
SWIDTH 1000 0
BBX 18 60 0 -12
DWIDTH 18 0
BITMAP
000000
000000
000000
000000
000000
000000
0FC000
0FC000
0FC000
0FC000
0FC000
0FC000
00FC00
00FC00
00FC00
00FC00
00FC00
00FC00
3FFC00
3FFC00
3FFC00
3FFC00
3FFC00
3FFC00
000F00
000F00
000F00
000F00
000F00
000F00
3FFF00
3FFF00
3FFF00
3FFF00
3FFF00
3FFF00
F03F00
F03F00
F03F00
F03F00
F03F00
F03F00
3FFF00
3FFF00
3FFF00
3FFF00
3FFF00
3FFF00
000000
000000
000000
000000
000000
000000
000000
000000
000000
000000
000000
000000
ENDCHAR
STARTCHAR U+00DF
ENCODING 223
SWIDTH 1000 0
BBX 18 60 0 -12
DWIDTH 18 0
BITMAP
000000
000000
000000
000000
000000
000000
0FF000
0FF000
0FF000
0FF000
0FF000
0FF000
3C3C00
3C3C00
3C3C00
3C3C00
3C3C00
3C3C00
F03C00
F03C00
F03C00
F03C00
F03C00
F03C00
FFF000
FFF000
FFF000
FFF000
FFF000
FFF000
F03C00
F03C00
F03C00
F03C00
F03C00
F03C00
FF0F00
FF0F00
FF0F00
FF0F00
FF0F00
FF0F00
F3FC00
F3FC00
F3FC00
F3FC00
F3FC00
F3FC00
F00000
F00000
F00000
F00000
F00000
F00000
000000
000000
000000
000000
000000
000000
ENDCHAR
STARTCHAR U+00DE
ENCODING 222
SWIDTH 1000 0
BBX 18 60 0 -12
DWIDTH 18 0
BITMAP
000000
000000
000000
000000
000000
000000
FF0000
FF0000
FF0000
FF0000
FF0000
FF0000
F3C000
F3C000
F3C000
F3C000
F3C000
F3C000
F3C000
F3C000
F3C000
F3C000
F3C000
F3C000
F3C000
F3C000
F3C000
F3C000
F3C000
F3C000
FFFF00
FFFF00
FFFF00
FFFF00
FFFF00
FFFF00
03C000
03C000
03C000
03C000
03C000
03C000
03FC00
03FC00
03FC00
03FC00
03FC00
03FC00
03C000
03C000
03C000
03C000
03C000
03C000
03FF00
03FF00
03FF00
03FF00
03FF00
03FF00
ENDCHAR
STARTCHAR U+0178
ENCODING 376
SWIDTH 1000 0
BBX 18 60 0 -12
DWIDTH 18 0
BITMAP
3C3C00
3C3C00
3C3C00
3C3C00
3C3C00
3C3C00
000000
000000
000000
000000
000000
000000
F00F00
F00F00
F00F00
F00F00
F00F00
F00F00
3C3C00
3C3C00
3C3C00
3C3C00
3C3C00
3C3C00
0FF000
0FF000
0FF000
0FF000
0FF000
0FF000
03C000
03C000
03C000
03C000
03C000
03C000
03C000
03C000
03C000
03C000
03C000
03C000
03C000
03C000
03C000
03C000
03C000
03C000
000000
000000
000000
000000
000000
000000
000000
000000
000000
000000
000000
000000
ENDCHAR
STARTCHAR U+00DC
ENCODING 220
SWIDTH 1000 0
BBX 18 60 0 -12
DWIDTH 18 0
BITMAP
3C3C00
3C3C00
3C3C00
3C3C00
3C3C00
3C3C00
000000
000000
000000
000000
000000
000000
F00F00
F00F00
F00F00
F00F00
F00F00
F00F00
F00F00
F00F00
F00F00
F00F00
F00F00
F00F00
F00F00
F00F00
F00F00
F00F00
F00F00
F00F00
F00F00
F00F00
F00F00
F00F00
F00F00
F00F00
F00F00
F00F00
F00F00
F00F00
F00F00
F00F00
3FFC00
3FFC00
3FFC00
3FFC00
3FFC00
3FFC00
000000
000000
000000
000000
000000
000000
000000
000000
000000
000000
000000
000000
ENDCHAR
STARTCHAR U+00DB
ENCODING 219
SWIDTH 1000 0
BBX 18 60 0 -12
DWIDTH 18 0
BITMAP
03C000
03C000
03C000
03C000
03C000
03C000
0FF000
0FF000
0FF000
0FF000
0FF000
0FF000
F00F00
F00F00
F00F00
F00F00
F00F00
F00F00
F00F00
F00F00
F00F00
F00F00
F00F00
F00F00
F00F00
F00F00
F00F00
F00F00
F00F00
F00F00
F00F00
F00F00
F00F00
F00F00
F00F00
F00F00
F00F00
F00F00
F00F00
F00F00
F00F00
F00F00
3FFC00
3FFC00
3FFC00
3FFC00
3FFC00
3FFC00
000000
000000
000000
000000
000000
000000
000000
000000
000000
000000
000000
000000
ENDCHAR
STARTCHAR U+00DA
ENCODING 218
SWIDTH 1000 0
BBX 18 60 0 -12
DWIDTH 18 0
BITMAP
00FC00
00FC00
00FC00
00FC00
00FC00
00FC00
0FC000
0FC000
0FC000
0FC000
0FC000
0FC000
F00F00
F00F00
F00F00
F00F00
F00F00
F00F00
F00F00
F00F00
F00F00
F00F00
F00F00
F00F00
F00F00
F00F00
F00F00
F00F00
F00F00
F00F00
F00F00
F00F00
F00F00
F00F00
F00F00
F00F00
F00F00
F00F00
F00F00
F00F00
F00F00
F00F00
3FFC00
3FFC00
3FFC00
3FFC00
3FFC00
3FFC00
000000
000000
000000
000000
000000
000000
000000
000000
000000
000000
000000
000000
ENDCHAR
STARTCHAR U+00D9
ENCODING 217
SWIDTH 1000 0
BBX 18 60 0 -12
DWIDTH 18 0
BITMAP
3F0000
3F0000
3F0000
3F0000
3F0000
3F0000
03F000
03F000
03F000
03F000
03F000
03F000
F00F00
F00F00
F00F00
F00F00
F00F00
F00F00
F00F00
F00F00
F00F00
F00F00
F00F00
F00F00
F00F00
F00F00
F00F00
F00F00
F00F00
F00F00
F00F00
F00F00
F00F00
F00F00
F00F00
F00F00
F00F00
F00F00
F00F00
F00F00
F00F00
F00F00
3FFC00
3FFC00
3FFC00
3FFC00
3FFC00
3FFC00
000000
000000
000000
000000
000000
000000
000000
000000
000000
000000
000000
000000
ENDCHAR
STARTCHAR U+00D8
ENCODING 216
SWIDTH 1000 0
BBX 18 60 0 -12
DWIDTH 18 0
BITMAP
000F00
000F00
000F00
000F00
000F00
000F00
3FFC00
3FFC00
3FFC00
3FFC00
3FFC00
3FFC00
F03F00
F03F00
F03F00
F03F00
F03F00
F03F00
F0FF00
F0FF00
F0FF00
F0FF00
F0FF00
F0FF00
F3CF00
F3CF00
F3CF00
F3CF00
F3CF00
F3CF00
FF0F00
FF0F00
FF0F00
FF0F00
FF0F00
FF0F00
FC0F00
FC0F00
FC0F00
FC0F00
FC0F00
FC0F00
3FFC00
3FFC00
3FFC00
3FFC00
3FFC00
3FFC00
F00000
F00000
F00000
F00000
F00000
F00000
000000
000000
000000
000000
000000
000000
ENDCHAR
STARTCHAR U+0152
ENCODING 338
SWIDTH 1000 0
BBX 18 60 0 -12
DWIDTH 18 0
BITMAP
000000
000000
000000
000000
000000
000000
3FFF00
3FFF00
3FFF00
3FFF00
3FFF00
3FFF00
F3C000
F3C000
F3C000
F3C000
F3C000
F3C000
F3C000
F3C000
F3C000
F3C000
F3C000
F3C000
F3FC00
F3FC00
F3FC00
F3FC00
F3FC00
F3FC00
F3C000
F3C000
F3C000
F3C000
F3C000
F3C000
F3C000
F3C000
F3C000
F3C000
F3C000
F3C000
3FFF00
3FFF00
3FFF00
3FFF00
3FFF00
3FFF00
000000
000000
000000
000000
000000
000000
000000
000000
000000
000000
000000
000000
ENDCHAR
STARTCHAR U+00D6
ENCODING 214
SWIDTH 1000 0
BBX 18 60 0 -12
DWIDTH 18 0
BITMAP
3C3C00
3C3C00
3C3C00
3C3C00
3C3C00
3C3C00
000000
000000
000000
000000
000000
000000
3FFC00
3FFC00
3FFC00
3FFC00
3FFC00
3FFC00
F00F00
F00F00
F00F00
F00F00
F00F00
F00F00
F00F00
F00F00
F00F00
F00F00
F00F00
F00F00
F00F00
F00F00
F00F00
F00F00
F00F00
F00F00
F00F00
F00F00
F00F00
F00F00
F00F00
F00F00
3FFC00
3FFC00
3FFC00
3FFC00
3FFC00
3FFC00
000000
000000
000000
000000
000000
000000
000000
000000
000000
000000
000000
000000
ENDCHAR
STARTCHAR U+00D5
ENCODING 213
SWIDTH 1000 0
BBX 18 60 0 -12
DWIDTH 18 0
BITMAP
3F3C00
3F3C00
3F3C00
3F3C00
3F3C00
3F3C00
F3F000
F3F000
F3F000
F3F000
F3F000
F3F000
3FFC00
3FFC00
3FFC00
3FFC00
3FFC00
3FFC00
F00F00
F00F00
F00F00
F00F00
F00F00
F00F00
F00F00
F00F00
F00F00
F00F00
F00F00
F00F00
F00F00
F00F00
F00F00
F00F00
F00F00
F00F00
F00F00
F00F00
F00F00
F00F00
F00F00
F00F00
3FFC00
3FFC00
3FFC00
3FFC00
3FFC00
3FFC00
000000
000000
000000
000000
000000
000000
000000
000000
000000
000000
000000
000000
ENDCHAR
STARTCHAR U+00D4
ENCODING 212
SWIDTH 1000 0
BBX 18 60 0 -12
DWIDTH 18 0
BITMAP
0FF000
0FF000
0FF000
0FF000
0FF000
0FF000
3C3C00
3C3C00
3C3C00
3C3C00
3C3C00
3C3C00
3FFC00
3FFC00
3FFC00
3FFC00
3FFC00
3FFC00
F00F00
F00F00
F00F00
F00F00
F00F00
F00F00
F00F00
F00F00
F00F00
F00F00
F00F00
F00F00
F00F00
F00F00
F00F00
F00F00
F00F00
F00F00
F00F00
F00F00
F00F00
F00F00
F00F00
F00F00
3FFC00
3FFC00
3FFC00
3FFC00
3FFC00
3FFC00
000000
000000
000000
000000
000000
000000
000000
000000
000000
000000
000000
000000
ENDCHAR
STARTCHAR U+00D3
ENCODING 211
SWIDTH 1000 0
BBX 18 60 0 -12
DWIDTH 18 0
BITMAP
03F000
03F000
03F000
03F000
03F000
03F000
3F0000
3F0000
3F0000
3F0000
3F0000
3F0000
3FFC00
3FFC00
3FFC00
3FFC00
3FFC00
3FFC00
F00F00
F00F00
F00F00
F00F00
F00F00
F00F00
F00F00
F00F00
F00F00
F00F00
F00F00
F00F00
F00F00
F00F00
F00F00
F00F00
F00F00
F00F00
F00F00
F00F00
F00F00
F00F00
F00F00
F00F00
3FFC00
3FFC00
3FFC00
3FFC00
3FFC00
3FFC00
000000
000000
000000
000000
000000
000000
000000
000000
000000
000000
000000
000000
ENDCHAR
STARTCHAR U+00D2
ENCODING 210
SWIDTH 1000 0
BBX 18 60 0 -12
DWIDTH 18 0
BITMAP
0FC000
0FC000
0FC000
0FC000
0FC000
0FC000
00FC00
00FC00
00FC00
00FC00
00FC00
00FC00
3FFC00
3FFC00
3FFC00
3FFC00
3FFC00
3FFC00
F00F00
F00F00
F00F00
F00F00
F00F00
F00F00
F00F00
F00F00
F00F00
F00F00
F00F00
F00F00
F00F00
F00F00
F00F00
F00F00
F00F00
F00F00
F00F00
F00F00
F00F00
F00F00
F00F00
F00F00
3FFC00
3FFC00
3FFC00
3FFC00
3FFC00
3FFC00
000000
000000
000000
000000
000000
000000
000000
000000
000000
000000
000000
000000
ENDCHAR
STARTCHAR U+00D1
ENCODING 209
SWIDTH 1000 0
BBX 18 60 0 -12
DWIDTH 18 0
BITMAP
0FCF00
0FCF00
0FCF00
0FCF00
0FCF00
0FCF00
3CFC00
3CFC00
3CFC00
3CFC00
3CFC00
3CFC00
FC0F00
FC0F00
FC0F00
FC0F00
FC0F00
FC0F00
FF0F00
FF0F00
FF0F00
FF0F00
FF0F00
FF0F00
F3CF00
F3CF00
F3CF00
F3CF00
F3CF00
F3CF00
F0FF00
F0FF00
F0FF00
F0FF00
F0FF00
F0FF00
F03F00
F03F00
F03F00
F03F00
F03F00
F03F00
F00F00
F00F00
F00F00
F00F00
F00F00
F00F00
000000
000000
000000
000000
000000
000000
000000
000000
000000
000000
000000
000000
ENDCHAR
STARTCHAR U+00D0
ENCODING 208
SWIDTH 1000 0
BBX 18 60 0 -12
DWIDTH 18 0
BITMAP
000000
000000
000000
000000
000000
000000
FF0000
FF0000
FF0000
FF0000
FF0000
FF0000
F3C000
F3C000
F3C000
F3C000
F3C000
F3C000
F3C000
F3C000
F3C000
F3C000
F3C000
F3C000
F3C000
F3C000
F3C000
F3C000
F3C000
F3C000
FFFC00
FFFC00
FFFC00
FFFC00
FFFC00
FFFC00
03CF00
03CF00
03CF00
03CF00
03CF00
03CF00
03CF00
03CF00
03CF00
03CF00
03CF00
03CF00
03CF00
03CF00
03CF00
03CF00
03CF00
03CF00
00FC00
00FC00
00FC00
00FC00
00FC00
00FC00
ENDCHAR
STARTCHAR U+00CF
ENCODING 207
SWIDTH 1000 0
BBX 18 60 0 -12
DWIDTH 18 0
BITMAP
3C3C00
3C3C00
3C3C00
3C3C00
3C3C00
3C3C00
000000
000000
000000
000000
000000
000000
3FFC00
3FFC00
3FFC00
3FFC00
3FFC00
3FFC00
03C000
03C000
03C000
03C000
03C000
03C000
03C000
03C000
03C000
03C000
03C000
03C000
03C000
03C000
03C000
03C000
03C000
03C000
03C000
03C000
03C000
03C000
03C000
03C000
3FFC00
3FFC00
3FFC00
3FFC00
3FFC00
3FFC00
000000
000000
000000
000000
000000
000000
000000
000000
000000
000000
000000
000000
ENDCHAR
STARTCHAR U+00CE
ENCODING 206
SWIDTH 1000 0
BBX 18 60 0 -12
DWIDTH 18 0
BITMAP
0FF000
0FF000
0FF000
0FF000
0FF000
0FF000
3C3C00
3C3C00
3C3C00
3C3C00
3C3C00
3C3C00
3FFC00
3FFC00
3FFC00
3FFC00
3FFC00
3FFC00
03C000
03C000
03C000
03C000
03C000
03C000
03C000
03C000
03C000
03C000
03C000
03C000
03C000
03C000
03C000
03C000
03C000
03C000
03C000
03C000
03C000
03C000
03C000
03C000
3FFC00
3FFC00
3FFC00
3FFC00
3FFC00
3FFC00
000000
000000
000000
000000
000000
000000
000000
000000
000000
000000
000000
000000
ENDCHAR
STARTCHAR U+00CD
ENCODING 205
SWIDTH 1000 0
BBX 18 60 0 -12
DWIDTH 18 0
BITMAP
03F000
03F000
03F000
03F000
03F000
03F000
3F0000
3F0000
3F0000
3F0000
3F0000
3F0000
3FFC00
3FFC00
3FFC00
3FFC00
3FFC00
3FFC00
03C000
03C000
03C000
03C000
03C000
03C000
03C000
03C000
03C000
03C000
03C000
03C000
03C000
03C000
03C000
03C000
03C000
03C000
03C000
03C000
03C000
03C000
03C000
03C000
3FFC00
3FFC00
3FFC00
3FFC00
3FFC00
3FFC00
000000
000000
000000
000000
000000
000000
000000
000000
000000
000000
000000
000000
ENDCHAR
STARTCHAR U+00CC
ENCODING 204
SWIDTH 1000 0
BBX 18 60 0 -12
DWIDTH 18 0
BITMAP
0FC000
0FC000
0FC000
0FC000
0FC000
0FC000
00FC00
00FC00
00FC00
00FC00
00FC00
00FC00
3FFC00
3FFC00
3FFC00
3FFC00
3FFC00
3FFC00
03C000
03C000
03C000
03C000
03C000
03C000
03C000
03C000
03C000
03C000
03C000
03C000
03C000
03C000
03C000
03C000
03C000
03C000
03C000
03C000
03C000
03C000
03C000
03C000
3FFC00
3FFC00
3FFC00
3FFC00
3FFC00
3FFC00
000000
000000
000000
000000
000000
000000
000000
000000
000000
000000
000000
000000
ENDCHAR
STARTCHAR U+00CB
ENCODING 203
SWIDTH 1000 0
BBX 18 60 0 -12
DWIDTH 18 0
BITMAP
3C3C00
3C3C00
3C3C00
3C3C00
3C3C00
3C3C00
000000
000000
000000
000000
000000
000000
FFFF00
FFFF00
FFFF00
FFFF00
FFFF00
FFFF00
F00000
F00000
F00000
F00000
F00000
F00000
FFF000
FFF000
FFF000
FFF000
FFF000
FFF000
F00000
F00000
F00000
F00000
F00000
F00000
F00000
F00000
F00000
F00000
F00000
F00000
FFFF00
FFFF00
FFFF00
FFFF00
FFFF00
FFFF00
000000
000000
000000
000000
000000
000000
000000
000000
000000
000000
000000
000000
ENDCHAR
STARTCHAR U+00CA
ENCODING 202
SWIDTH 1000 0
BBX 18 60 0 -12
DWIDTH 18 0
BITMAP
0FF000
0FF000
0FF000
0FF000
0FF000
0FF000
3C3C00
3C3C00
3C3C00
3C3C00
3C3C00
3C3C00
FFFF00
FFFF00
FFFF00
FFFF00
FFFF00
FFFF00
F00000
F00000
F00000
F00000
F00000
F00000
FFC000
FFC000
FFC000
FFC000
FFC000
FFC000
F00000
F00000
F00000
F00000
F00000
F00000
F00000
F00000
F00000
F00000
F00000
F00000
FFFF00
FFFF00
FFFF00
FFFF00
FFFF00
FFFF00
000000
000000
000000
000000
000000
000000
000000
000000
000000
000000
000000
000000
ENDCHAR
STARTCHAR U+00C9
ENCODING 201
SWIDTH 1000 0
BBX 18 60 0 -12
DWIDTH 18 0
BITMAP
00FC00
00FC00
00FC00
00FC00
00FC00
00FC00
0FC000
0FC000
0FC000
0FC000
0FC000
0FC000
FFFF00
FFFF00
FFFF00
FFFF00
FFFF00
FFFF00
F00000
F00000
F00000
F00000
F00000
F00000
FFF000
FFF000
FFF000
FFF000
FFF000
FFF000
F00000
F00000
F00000
F00000
F00000
F00000
F00000
F00000
F00000
F00000
F00000
F00000
FFFF00
FFFF00
FFFF00
FFFF00
FFFF00
FFFF00
000000
000000
000000
000000
000000
000000
000000
000000
000000
000000
000000
000000
ENDCHAR
STARTCHAR U+00C8
ENCODING 200
SWIDTH 1000 0
BBX 18 60 0 -12
DWIDTH 18 0
BITMAP
3F0000
3F0000
3F0000
3F0000
3F0000
3F0000
03F000
03F000
03F000
03F000
03F000
03F000
FFFF00
FFFF00
FFFF00
FFFF00
FFFF00
FFFF00
F00000
F00000
F00000
F00000
F00000
F00000
FFF000
FFF000
FFF000
FFF000
FFF000
FFF000
F00000
F00000
F00000
F00000
F00000
F00000
F00000
F00000
F00000
F00000
F00000
F00000
FFFF00
FFFF00
FFFF00
FFFF00
FFFF00
FFFF00
000000
000000
000000
000000
000000
000000
000000
000000
000000
000000
000000
000000
ENDCHAR
STARTCHAR U+00C7
ENCODING 199
SWIDTH 1000 0
BBX 18 60 0 -12
DWIDTH 18 0
BITMAP
000000
000000
000000
000000
000000
000000
0FFC00
0FFC00
0FFC00
0FFC00
0FFC00
0FFC00
3C0F00
3C0F00
3C0F00
3C0F00
3C0F00
3C0F00
F00000
F00000
F00000
F00000
F00000
F00000
F00000
F00000
F00000
F00000
F00000
F00000
F00000
F00000
F00000
F00000
F00000
F00000
3C0F00
3C0F00
3C0F00
3C0F00
3C0F00
3C0F00
0FFC00
0FFC00
0FFC00
0FFC00
0FFC00
0FFC00
00F000
00F000
00F000
00F000
00F000
00F000
0FF000
0FF000
0FF000
0FF000
0FF000
0FF000
ENDCHAR
STARTCHAR U+00C6
ENCODING 198
SWIDTH 1000 0
BBX 18 60 0 -12
DWIDTH 18 0
BITMAP
000000
000000
000000
000000
000000
000000
0FFF00
0FFF00
0FFF00
0FFF00
0FFF00
0FFF00
3FC000
3FC000
3FC000
3FC000
3FC000
3FC000
F3C000
F3C000
F3C000
F3C000
F3C000
F3C000
F3FC00
F3FC00
F3FC00
F3FC00
F3FC00
F3FC00
FFC000
FFC000
FFC000
FFC000
FFC000
FFC000
F3C000
F3C000
F3C000
F3C000
F3C000
F3C000
F3FF00
F3FF00
F3FF00
F3FF00
F3FF00
F3FF00
000000
000000
000000
000000
000000
000000
000000
000000
000000
000000
000000
000000
ENDCHAR
STARTCHAR U+00C5
ENCODING 197
SWIDTH 1000 0
BBX 18 60 0 -12
DWIDTH 18 0
BITMAP
0FF000
0FF000
0FF000
0FF000
0FF000
0FF000
3C3C00
3C3C00
3C3C00
3C3C00
3C3C00
3C3C00
0FF000
0FF000
0FF000
0FF000
0FF000
0FF000
0FF000
0FF000
0FF000
0FF000
0FF000
0FF000
3C3C00
3C3C00
3C3C00
3C3C00
3C3C00
3C3C00
FFFF00
FFFF00
FFFF00
FFFF00
FFFF00
FFFF00
F00F00
F00F00
F00F00
F00F00
F00F00
F00F00
F00F00
F00F00
F00F00
F00F00
F00F00
F00F00
000000
000000
000000
000000
000000
000000
000000
000000
000000
000000
000000
000000
ENDCHAR
STARTCHAR U+00C4
ENCODING 196
SWIDTH 1000 0
BBX 18 60 0 -12
DWIDTH 18 0
BITMAP
3C3C00
3C3C00
3C3C00
3C3C00
3C3C00
3C3C00
000000
000000
000000
000000
000000
000000
03C000
03C000
03C000
03C000
03C000
03C000
0FF000
0FF000
0FF000
0FF000
0FF000
0FF000
3C3C00
3C3C00
3C3C00
3C3C00
3C3C00
3C3C00
FFFF00
FFFF00
FFFF00
FFFF00
FFFF00
FFFF00
F00F00
F00F00
F00F00
F00F00
F00F00
F00F00
F00F00
F00F00
F00F00
F00F00
F00F00
F00F00
000000
000000
000000
000000
000000
000000
000000
000000
000000
000000
000000
000000
ENDCHAR
STARTCHAR U+00C3
ENCODING 195
SWIDTH 1000 0
BBX 18 60 0 -12
DWIDTH 18 0
BITMAP
0FCF00
0FCF00
0FCF00
0FCF00
0FCF00
0FCF00
3CFC00
3CFC00
3CFC00
3CFC00
3CFC00
3CFC00
03C000
03C000
03C000
03C000
03C000
03C000
0FF000
0FF000
0FF000
0FF000
0FF000
0FF000
3C3C00
3C3C00
3C3C00
3C3C00
3C3C00
3C3C00
FFFF00
FFFF00
FFFF00
FFFF00
FFFF00
FFFF00
F00F00
F00F00
F00F00
F00F00
F00F00
F00F00
F00F00
F00F00
F00F00
F00F00
F00F00
F00F00
000000
000000
000000
000000
000000
000000
000000
000000
000000
000000
000000
000000
ENDCHAR
STARTCHAR U+00C2
ENCODING 194
SWIDTH 1000 0
BBX 18 60 0 -12
DWIDTH 18 0
BITMAP
0FF000
0FF000
0FF000
0FF000
0FF000
0FF000
3C3C00
3C3C00
3C3C00
3C3C00
3C3C00
3C3C00
03C000
03C000
03C000
03C000
03C000
03C000
0FF000
0FF000
0FF000
0FF000
0FF000
0FF000
3C3C00
3C3C00
3C3C00
3C3C00
3C3C00
3C3C00
FFFF00
FFFF00
FFFF00
FFFF00
FFFF00
FFFF00
F00F00
F00F00
F00F00
F00F00
F00F00
F00F00
F00F00
F00F00
F00F00
F00F00
F00F00
F00F00
000000
000000
000000
000000
000000
000000
000000
000000
000000
000000
000000
000000
ENDCHAR
STARTCHAR U+00C1
ENCODING 193
SWIDTH 1000 0
BBX 18 60 0 -12
DWIDTH 18 0
BITMAP
03F000
03F000
03F000
03F000
03F000
03F000
3F0000
3F0000
3F0000
3F0000
3F0000
3F0000
03C000
03C000
03C000
03C000
03C000
03C000
0FF000
0FF000
0FF000
0FF000
0FF000
0FF000
3C3C00
3C3C00
3C3C00
3C3C00
3C3C00
3C3C00
FFFF00
FFFF00
FFFF00
FFFF00
FFFF00
FFFF00
F00F00
F00F00
F00F00
F00F00
F00F00
F00F00
F00F00
F00F00
F00F00
F00F00
F00F00
F00F00
000000
000000
000000
000000
000000
000000
000000
000000
000000
000000
000000
000000
ENDCHAR
STARTCHAR U+00C0
ENCODING 192
SWIDTH 1000 0
BBX 18 60 0 -12
DWIDTH 18 0
BITMAP
0FC000
0FC000
0FC000
0FC000
0FC000
0FC000
00FC00
00FC00
00FC00
00FC00
00FC00
00FC00
03C000
03C000
03C000
03C000
03C000
03C000
0FF000
0FF000
0FF000
0FF000
0FF000
0FF000
3C3C00
3C3C00
3C3C00
3C3C00
3C3C00
3C3C00
FFFF00
FFFF00
FFFF00
FFFF00
FFFF00
FFFF00
F00F00
F00F00
F00F00
F00F00
F00F00
F00F00
F00F00
F00F00
F00F00
F00F00
F00F00
F00F00
000000
000000
000000
000000
000000
000000
000000
000000
000000
000000
000000
000000
ENDCHAR
STARTCHAR U+00BF
ENCODING 191
SWIDTH 1000 0
BBX 18 60 0 -12
DWIDTH 18 0
BITMAP
000000
000000
000000
000000
000000
000000
03C000
03C000
03C000
03C000
03C000
03C000
000000
000000
000000
000000
000000
000000
03C000
03C000
03C000
03C000
03C000
03C000
03C000
03C000
03C000
03C000
03C000
03C000
3F0000
3F0000
3F0000
3F0000
3F0000
3F0000
F00F00
F00F00
F00F00
F00F00
F00F00
F00F00
3FFC00
3FFC00
3FFC00
3FFC00
3FFC00
3FFC00
000000
000000
000000
000000
000000
000000
000000
000000
000000
000000
000000
000000
ENDCHAR
STARTCHAR U+00BE
ENCODING 190
SWIDTH 1000 0
BBX 18 60 0 -12
DWIDTH 18 0
BITMAP
000000
000000
000000
000000
000000
000000
FF0000
FF0000
FF0000
FF0000
FF0000
FF0000
F3C000
F3C000
F3C000
F3C000
F3C000
F3C000
FF0000
FF0000
FF0000
FF0000
FF0000
FF0000
F3C000
F3C000
F3C000
F3C000
F3C000
F3C000
FFFF00
FFFF00
FFFF00
FFFF00
FFFF00
FFFF00
03C000
03C000
03C000
03C000
03C000
03C000
03FC00
03FC00
03FC00
03FC00
03FC00
03FC00
03C000
03C000
03C000
03C000
03C000
03C000
03FF00
03FF00
03FF00
03FF00
03FF00
03FF00
ENDCHAR
STARTCHAR U+00BD
ENCODING 189
SWIDTH 1000 0
BBX 18 60 0 -12
DWIDTH 18 0
BITMAP
000000
000000
000000
000000
000000
000000
3C0000
3C0000
3C0000
3C0000
3C0000
3C0000
FC3C00
FC3C00
FC3C00
FC3C00
FC3C00
FC3C00
3CF000
3CF000
3CF000
3CF000
3CF000
3CF000
3FC000
3FC000
3FC000
3FC000
3FC000
3FC000
0FFC00
0FFC00
0FFC00
0FFC00
0FFC00
0FFC00
3FCF00
3FCF00
3FCF00
3FCF00
3FCF00
3FCF00
F03C00
F03C00
F03C00
F03C00
F03C00
F03C00
00F000
00F000
00F000
00F000
00F000
00F000
03FF00
03FF00
03FF00
03FF00
03FF00
03FF00
ENDCHAR
STARTCHAR U+00BC
ENCODING 188
SWIDTH 1000 0
BBX 18 60 0 -12
DWIDTH 18 0
BITMAP
000000
000000
000000
000000
000000
000000
3C0000
3C0000
3C0000
3C0000
3C0000
3C0000
FC3C00
FC3C00
FC3C00
FC3C00
FC3C00
FC3C00
3CF000
3CF000
3CF000
3CF000
3CF000
3CF000
3FC000
3FC000
3FC000
3FC000
3FC000
3FC000
0F3C00
0F3C00
0F3C00
0F3C00
0F3C00
0F3C00
3CFC00
3CFC00
3CFC00
3CFC00
3CFC00
3CFC00
F3FC00
F3FC00
F3FC00
F3FC00
F3FC00
F3FC00
0FFF00
0FFF00
0FFF00
0FFF00
0FFF00
0FFF00
003C00
003C00
003C00
003C00
003C00
003C00
ENDCHAR
STARTCHAR U+00BB
ENCODING 187
SWIDTH 1000 0
BBX 18 60 0 -12
DWIDTH 18 0
BITMAP
000000
000000
000000
000000
000000
000000
F3C000
F3C000
F3C000
F3C000
F3C000
F3C000
3CF000
3CF000
3CF000
3CF000
3CF000
3CF000
0F3C00
0F3C00
0F3C00
0F3C00
0F3C00
0F3C00
03CF00
03CF00
03CF00
03CF00
03CF00
03CF00
0F3C00
0F3C00
0F3C00
0F3C00
0F3C00
0F3C00
3CF000
3CF000
3CF000
3CF000
3CF000
3CF000
F3C000
F3C000
F3C000
F3C000
F3C000
F3C000
000000
000000
000000
000000
000000
000000
000000
000000
000000
000000
000000
000000
ENDCHAR
STARTCHAR U+00BA
ENCODING 186
SWIDTH 1000 0
BBX 18 60 0 -12
DWIDTH 18 0
BITMAP
000000
000000
000000
000000
000000
000000
3FFC00
3FFC00
3FFC00
3FFC00
3FFC00
3FFC00
F00F00
F00F00
F00F00
F00F00
F00F00
F00F00
F00F00
F00F00
F00F00
F00F00
F00F00
F00F00
F00F00
F00F00
F00F00
F00F00
F00F00
F00F00
3FFC00
3FFC00
3FFC00
3FFC00
3FFC00
3FFC00
000000
000000
000000
000000
000000
000000
FFFF00
FFFF00
FFFF00
FFFF00
FFFF00
FFFF00
000000
000000
000000
000000
000000
000000
000000
000000
000000
000000
000000
000000
ENDCHAR
STARTCHAR U+00B9
ENCODING 185
SWIDTH 1000 0
BBX 18 60 0 -12
DWIDTH 18 0
BITMAP
03C000
03C000
03C000
03C000
03C000
03C000
0FC000
0FC000
0FC000
0FC000
0FC000
0FC000
03C000
03C000
03C000
03C000
03C000
03C000
03C000
03C000
03C000
03C000
03C000
03C000
0FF000
0FF000
0FF000
0FF000
0FF000
0FF000
000000
000000
000000
000000
000000
000000
000000
000000
000000
000000
000000
000000
000000
000000
000000
000000
000000
000000
000000
000000
000000
000000
000000
000000
000000
000000
000000
000000
000000
000000
ENDCHAR
STARTCHAR U+00B8
ENCODING 184
SWIDTH 1000 0
BBX 18 60 0 -12
DWIDTH 18 0
BITMAP
000000
000000
000000
000000
000000
000000
FF0000
FF0000
FF0000
FF0000
FF0000
FF0000
F3C000
F3C000
F3C000
F3C000
F3C000
F3C000
FF0000
FF0000
FF0000
FF0000
FF0000
FF0000
F3C000
F3C000
F3C000
F3C000
F3C000
F3C000
FFFC00
FFFC00
FFFC00
FFFC00
FFFC00
FFFC00
03CF00
03CF00
03CF00
03CF00
03CF00
03CF00
00FC00
00FC00
00FC00
00FC00
00FC00
00FC00
03CF00
03CF00
03CF00
03CF00
03CF00
03CF00
00FC00
00FC00
00FC00
00FC00
00FC00
00FC00
ENDCHAR
STARTCHAR U+00B7
ENCODING 183
SWIDTH 1000 0
BBX 18 60 0 -12
DWIDTH 18 0
BITMAP
000000
000000
000000
000000
000000
000000
000000
000000
000000
000000
000000
000000
000000
000000
000000
000000
000000
000000
0FC000
0FC000
0FC000
0FC000
0FC000
0FC000
0FC000
0FC000
0FC000
0FC000
0FC000
0FC000
000000
000000
000000
000000
000000
000000
000000
000000
000000
000000
000000
000000
000000
000000
000000
000000
000000
000000
000000
000000
000000
000000
000000
000000
000000
000000
000000
000000
000000
000000
ENDCHAR
STARTCHAR U+00B6
ENCODING 182
SWIDTH 1000 0
BBX 18 60 0 -12
DWIDTH 18 0
BITMAP
000000
000000
000000
000000
000000
000000
3FFF00
3FFF00
3FFF00
3FFF00
3FFF00
3FFF00
FCFF00
FCFF00
FCFF00
FCFF00
FCFF00
FCFF00
FCFF00
FCFF00
FCFF00
FCFF00
FCFF00
FCFF00
3FFF00
3FFF00
3FFF00
3FFF00
3FFF00
3FFF00
00FF00
00FF00
00FF00
00FF00
00FF00
00FF00
00FF00
00FF00
00FF00
00FF00
00FF00
00FF00
00FF00
00FF00
00FF00
00FF00
00FF00
00FF00
000000
000000
000000
000000
000000
000000
000000
000000
000000
000000
000000
000000
ENDCHAR
STARTCHAR U+00B5
ENCODING 181
SWIDTH 1000 0
BBX 18 60 0 -12
DWIDTH 18 0
BITMAP
000000
000000
000000
000000
000000
000000
000000
000000
000000
000000
000000
000000
000000
000000
000000
000000
000000
000000
3C0F00
3C0F00
3C0F00
3C0F00
3C0F00
3C0F00
3C0F00
3C0F00
3C0F00
3C0F00
3C0F00
3C0F00
3C0F00
3C0F00
3C0F00
3C0F00
3C0F00
3C0F00
3F3F00
3F3F00
3F3F00
3F3F00
3F3F00
3F3F00
3FFF00
3FFF00
3FFF00
3FFF00
3FFF00
3FFF00
3C0000
3C0000
3C0000
3C0000
3C0000
3C0000
F00000
F00000
F00000
F00000
F00000
F00000
ENDCHAR
STARTCHAR U+00B4
ENCODING 180
SWIDTH 1000 0
BBX 18 60 0 -12
DWIDTH 18 0
BITMAP
000000
000000
000000
000000
000000
000000
FF0000
FF0000
FF0000
FF0000
FF0000
FF0000
F3C000
F3C000
F3C000
F3C000
F3C000
F3C000
FF0000
FF0000
FF0000
FF0000
FF0000
FF0000
F3C000
F3C000
F3C000
F3C000
F3C000
F3C000
FF3C00
FF3C00
FF3C00
FF3C00
FF3C00
FF3C00
00FC00
00FC00
00FC00
00FC00
00FC00
00FC00
03FC00
03FC00
03FC00
03FC00
03FC00
03FC00
0FFF00
0FFF00
0FFF00
0FFF00
0FFF00
0FFF00
003C00
003C00
003C00
003C00
003C00
003C00
ENDCHAR
STARTCHAR U+00B3
ENCODING 179
SWIDTH 1000 0
BBX 18 60 0 -12
DWIDTH 18 0
BITMAP
3FFC00
3FFC00
3FFC00
3FFC00
3FFC00
3FFC00
003C00
003C00
003C00
003C00
003C00
003C00
03F000
03F000
03F000
03F000
03F000
03F000
003C00
003C00
003C00
003C00
003C00
003C00
3FF000
3FF000
3FF000
3FF000
3FF000
3FF000
000000
000000
000000
000000
000000
000000
000000
000000
000000
000000
000000
000000
000000
000000
000000
000000
000000
000000
000000
000000
000000
000000
000000
000000
000000
000000
000000
000000
000000
000000
ENDCHAR
STARTCHAR U+00B2
ENCODING 178
SWIDTH 1000 0
BBX 18 60 0 -12
DWIDTH 18 0
BITMAP
0FF000
0FF000
0FF000
0FF000
0FF000
0FF000
3C3C00
3C3C00
3C3C00
3C3C00
3C3C00
3C3C00
03F000
03F000
03F000
03F000
03F000
03F000
0F0000
0F0000
0F0000
0F0000
0F0000
0F0000
3FFC00
3FFC00
3FFC00
3FFC00
3FFC00
3FFC00
000000
000000
000000
000000
000000
000000
000000
000000
000000
000000
000000
000000
000000
000000
000000
000000
000000
000000
000000
000000
000000
000000
000000
000000
000000
000000
000000
000000
000000
000000
ENDCHAR
STARTCHAR U+00B1
ENCODING 177
SWIDTH 1000 0
BBX 18 60 0 -12
DWIDTH 18 0
BITMAP
000000
000000
000000
000000
000000
000000
000000
000000
000000
000000
000000
000000
03C000
03C000
03C000
03C000
03C000
03C000
03C000
03C000
03C000
03C000
03C000
03C000
FFFF00
FFFF00
FFFF00
FFFF00
FFFF00
FFFF00
03C000
03C000
03C000
03C000
03C000
03C000
03C000
03C000
03C000
03C000
03C000
03C000
FFFF00
FFFF00
FFFF00
FFFF00
FFFF00
FFFF00
000000
000000
000000
000000
000000
000000
000000
000000
000000
000000
000000
000000
ENDCHAR
STARTCHAR U+00B0
ENCODING 176
SWIDTH 1000 0
BBX 18 60 0 -12
DWIDTH 18 0
BITMAP
000000
000000
000000
000000
000000
000000
0FF000
0FF000
0FF000
0FF000
0FF000
0FF000
3C3C00
3C3C00
3C3C00
3C3C00
3C3C00
3C3C00
0FF000
0FF000
0FF000
0FF000
0FF000
0FF000
000000
000000
000000
000000
000000
000000
000000
000000
000000
000000
000000
000000
000000
000000
000000
000000
000000
000000
000000
000000
000000
000000
000000
000000
000000
000000
000000
000000
000000
000000
000000
000000
000000
000000
000000
000000
ENDCHAR
STARTCHAR U+00AF
ENCODING 175
SWIDTH 1000 0
BBX 18 60 0 -12
DWIDTH 18 0
BITMAP
000000
000000
000000
000000
000000
000000
3F0000
3F0000
3F0000
3F0000
3F0000
3F0000
F3C000
F3C000
F3C000
F3C000
F3C000
F3C000
FFC000
FFC000
FFC000
FFC000
FFC000
FFC000
F3C000
F3C000
F3C000
F3C000
F3C000
F3C000
F3FF00
F3FF00
F3FF00
F3FF00
F3FF00
F3FF00
03C000
03C000
03C000
03C000
03C000
03C000
03FC00
03FC00
03FC00
03FC00
03FC00
03FC00
03C000
03C000
03C000
03C000
03C000
03C000
03C000
03C000
03C000
03C000
03C000
03C000
ENDCHAR
STARTCHAR U+00AE
ENCODING 174
SWIDTH 1000 0
BBX 18 60 0 -12
DWIDTH 18 0
BITMAP
000000
000000
000000
000000
000000
000000
3F0000
3F0000
3F0000
3F0000
3F0000
3F0000
F3C000
F3C000
F3C000
F3C000
F3C000
F3C000
FFC000
FFC000
FFC000
FFC000
FFC000
FFC000
F3C000
F3C000
F3C000
F3C000
F3C000
F3C000
F3FF00
F3FF00
F3FF00
F3FF00
F3FF00
F3FF00
03C000
03C000
03C000
03C000
03C000
03C000
03FC00
03FC00
03FC00
03FC00
03FC00
03FC00
03C000
03C000
03C000
03C000
03C000
03C000
03FF00
03FF00
03FF00
03FF00
03FF00
03FF00
ENDCHAR
STARTCHAR U+00AC
ENCODING 172
SWIDTH 1000 0
BBX 18 60 0 -12
DWIDTH 18 0
BITMAP
000000
000000
000000
000000
000000
000000
3F0000
3F0000
3F0000
3F0000
3F0000
3F0000
F3C000
F3C000
F3C000
F3C000
F3C000
F3C000
FFC000
FFC000
FFC000
FFC000
FFC000
FFC000
F3C000
F3C000
F3C000
F3C000
F3C000
F3C000
F3FF00
F3FF00
F3FF00
F3FF00
F3FF00
F3FF00
03C000
03C000
03C000
03C000
03C000
03C000
03C000
03C000
03C000
03C000
03C000
03C000
03C000
03C000
03C000
03C000
03C000
03C000
00FF00
00FF00
00FF00
00FF00
00FF00
00FF00
ENDCHAR
STARTCHAR U+00AB
ENCODING 171
SWIDTH 1000 0
BBX 18 60 0 -12
DWIDTH 18 0
BITMAP
000000
000000
000000
000000
000000
000000
03CF00
03CF00
03CF00
03CF00
03CF00
03CF00
0F3C00
0F3C00
0F3C00
0F3C00
0F3C00
0F3C00
3CF000
3CF000
3CF000
3CF000
3CF000
3CF000
F3C000
F3C000
F3C000
F3C000
F3C000
F3C000
3CF000
3CF000
3CF000
3CF000
3CF000
3CF000
0F3C00
0F3C00
0F3C00
0F3C00
0F3C00
0F3C00
03CF00
03CF00
03CF00
03CF00
03CF00
03CF00
000000
000000
000000
000000
000000
000000
000000
000000
000000
000000
000000
000000
ENDCHAR
STARTCHAR U+00AA
ENCODING 170
SWIDTH 1000 0
BBX 18 60 0 -12
DWIDTH 18 0
BITMAP
000000
000000
000000
000000
000000
000000
3FFC00
3FFC00
3FFC00
3FFC00
3FFC00
3FFC00
000F00
000F00
000F00
000F00
000F00
000F00
3FFF00
3FFF00
3FFF00
3FFF00
3FFF00
3FFF00
F03F00
F03F00
F03F00
F03F00
F03F00
F03F00
3FFF00
3FFF00
3FFF00
3FFF00
3FFF00
3FFF00
000000
000000
000000
000000
000000
000000
FFFF00
FFFF00
FFFF00
FFFF00
FFFF00
FFFF00
000000
000000
000000
000000
000000
000000
000000
000000
000000
000000
000000
000000
ENDCHAR
STARTCHAR U+00A9
ENCODING 169
SWIDTH 1000 0
BBX 18 60 0 -12
DWIDTH 18 0
BITMAP
000000
000000
000000
000000
000000
000000
0FF000
0FF000
0FF000
0FF000
0FF000
0FF000
3C3C00
3C3C00
3C3C00
3C3C00
3C3C00
3C3C00
F3FF00
F3FF00
F3FF00
F3FF00
F3FF00
F3FF00
FF0F00
FF0F00
FF0F00
FF0F00
FF0F00
FF0F00
FF0F00
FF0F00
FF0F00
FF0F00
FF0F00
FF0F00
F3FF00
F3FF00
F3FF00
F3FF00
F3FF00
F3FF00
3C3C00
3C3C00
3C3C00
3C3C00
3C3C00
3C3C00
0FF000
0FF000
0FF000
0FF000
0FF000
0FF000
000000
000000
000000
000000
000000
000000
ENDCHAR
STARTCHAR U+00A4
ENCODING 164
SWIDTH 1000 0
BBX 18 60 0 -12
DWIDTH 18 0
BITMAP
000000
000000
000000
000000
000000
000000
000000
000000
000000
000000
000000
000000
F00F00
F00F00
F00F00
F00F00
F00F00
F00F00
3FFC00
3FFC00
3FFC00
3FFC00
3FFC00
3FFC00
3C3C00
3C3C00
3C3C00
3C3C00
3C3C00
3C3C00
3FFC00
3FFC00
3FFC00
3FFC00
3FFC00
3FFC00
F00F00
F00F00
F00F00
F00F00
F00F00
F00F00
000000
000000
000000
000000
000000
000000
000000
000000
000000
000000
000000
000000
000000
000000
000000
000000
000000
000000
ENDCHAR
STARTCHAR U+00A7
ENCODING 167
SWIDTH 1000 0
BBX 18 60 0 -12
DWIDTH 18 0
BITMAP
000000
000000
000000
000000
000000
000000
0FFC00
0FFC00
0FFC00
0FFC00
0FFC00
0FFC00
3C0000
3C0000
3C0000
3C0000
3C0000
3C0000
0FF000
0FF000
0FF000
0FF000
0FF000
0FF000
3C3C00
3C3C00
3C3C00
3C3C00
3C3C00
3C3C00
0FF000
0FF000
0FF000
0FF000
0FF000
0FF000
003C00
003C00
003C00
003C00
003C00
003C00
3FF000
3FF000
3FF000
3FF000
3FF000
3FF000
000000
000000
000000
000000
000000
000000
000000
000000
000000
000000
000000
000000
ENDCHAR
STARTCHAR U+00A6
ENCODING 166
SWIDTH 1000 0
BBX 18 60 0 -12
DWIDTH 18 0
BITMAP
000000
000000
000000
000000
000000
000000
3F0000
3F0000
3F0000
3F0000
3F0000
3F0000
F3C000
F3C000
F3C000
F3C000
F3C000
F3C000
FFC000
FFC000
FFC000
FFC000
FFC000
FFC000
F3C000
F3C000
F3C000
F3C000
F3C000
F3C000
F3FF00
F3FF00
F3FF00
F3FF00
F3FF00
F3FF00
00F000
00F000
00F000
00F000
00F000
00F000
03FC00
03FC00
03FC00
03FC00
03FC00
03FC00
03CF00
03CF00
03CF00
03CF00
03CF00
03CF00
00FC00
00FC00
00FC00
00FC00
00FC00
00FC00
ENDCHAR
STARTCHAR U+00A5
ENCODING 165
SWIDTH 1000 0
BBX 18 60 0 -12
DWIDTH 18 0
BITMAP
000000
000000
000000
000000
000000
000000
F00F00
F00F00
F00F00
F00F00
F00F00
F00F00
3C3C00
3C3C00
3C3C00
3C3C00
3C3C00
3C3C00
0FF000
0FF000
0FF000
0FF000
0FF000
0FF000
03C000
03C000
03C000
03C000
03C000
03C000
FFFF00
FFFF00
FFFF00
FFFF00
FFFF00
FFFF00
03C000
03C000
03C000
03C000
03C000
03C000
03C000
03C000
03C000
03C000
03C000
03C000
000000
000000
000000
000000
000000
000000
000000
000000
000000
000000
000000
000000
ENDCHAR
STARTCHAR U+00A8
ENCODING 168
SWIDTH 1000 0
BBX 18 60 0 -12
DWIDTH 18 0
BITMAP
000000
000000
000000
000000
000000
000000
3F0000
3F0000
3F0000
3F0000
3F0000
3F0000
F3C000
F3C000
F3C000
F3C000
F3C000
F3C000
FFC000
FFC000
FFC000
FFC000
FFC000
FFC000
F3C000
F3C000
F3C000
F3C000
F3C000
F3C000
F3FC00
F3FC00
F3FC00
F3FC00
F3FC00
F3FC00
00FC00
00FC00
00FC00
00FC00
00FC00
00FC00
03FC00
03FC00
03FC00
03FC00
03FC00
03FC00
0FFF00
0FFF00
0FFF00
0FFF00
0FFF00
0FFF00
003C00
003C00
003C00
003C00
003C00
003C00
ENDCHAR
STARTCHAR U+00A3
ENCODING 163
SWIDTH 1000 0
BBX 18 60 0 -12
DWIDTH 18 0
BITMAP
000000
000000
000000
000000
000000
000000
03FC00
03FC00
03FC00
03FC00
03FC00
03FC00
0F0F00
0F0F00
0F0F00
0F0F00
0F0F00
0F0F00
0F0000
0F0000
0F0000
0F0000
0F0000
0F0000
FFF000
FFF000
FFF000
FFF000
FFF000
FFF000
0F0000
0F0000
0F0000
0F0000
0F0000
0F0000
3FF000
3FF000
3FF000
3FF000
3FF000
3FF000
FF3F00
FF3F00
FF3F00
FF3F00
FF3F00
FF3F00
3C0000
3C0000
3C0000
3C0000
3C0000
3C0000
000000
000000
000000
000000
000000
000000
ENDCHAR
STARTCHAR U+00A2
ENCODING 162
SWIDTH 1000 0
BBX 18 60 0 -12
DWIDTH 18 0
BITMAP
000000
000000
000000
000000
000000
000000
000000
000000
000000
000000
000000
000000
03C000
03C000
03C000
03C000
03C000
03C000
3FFC00
3FFC00
3FFC00
3FFC00
3FFC00
3FFC00
F3CF00
F3CF00
F3CF00
F3CF00
F3CF00
F3CF00
F3C000
F3C000
F3C000
F3C000
F3C000
F3C000
F3CF00
F3CF00
F3CF00
F3CF00
F3CF00
F3CF00
3FFC00
3FFC00
3FFC00
3FFC00
3FFC00
3FFC00
03C000
03C000
03C000
03C000
03C000
03C000
000000
000000
000000
000000
000000
000000
ENDCHAR
STARTCHAR U+00A1
ENCODING 161
SWIDTH 1000 0
BBX 18 60 0 -12
DWIDTH 18 0
BITMAP
000000
000000
000000
000000
000000
000000
03C000
03C000
03C000
03C000
03C000
03C000
000000
000000
000000
000000
000000
000000
03C000
03C000
03C000
03C000
03C000
03C000
03C000
03C000
03C000
03C000
03C000
03C000
03C000
03C000
03C000
03C000
03C000
03C000
03C000
03C000
03C000
03C000
03C000
03C000
03C000
03C000
03C000
03C000
03C000
03C000
000000
000000
000000
000000
000000
000000
000000
000000
000000
000000
000000
000000
ENDCHAR
STARTCHAR U+007F
ENCODING 127
SWIDTH 1000 0
BBX 18 60 0 -12
DWIDTH 18 0
BITMAP
000000
000000
000000
000000
000000
000000
FF0000
FF0000
FF0000
FF0000
FF0000
FF0000
F3C000
F3C000
F3C000
F3C000
F3C000
F3C000
F3C000
F3C000
F3C000
F3C000
F3C000
F3C000
F3C000
F3C000
F3C000
F3C000
F3C000
F3C000
FFF000
FFF000
FFF000
FFF000
FFF000
FFF000
0F0000
0F0000
0F0000
0F0000
0F0000
0F0000
0F0000
0F0000
0F0000
0F0000
0F0000
0F0000
0F0000
0F0000
0F0000
0F0000
0F0000
0F0000
0F0000
0F0000
0F0000
0F0000
0F0000
0F0000
ENDCHAR
STARTCHAR U+007E
ENCODING 126
SWIDTH 1000 0
BBX 18 60 0 -12
DWIDTH 18 0
BITMAP
000000
000000
000000
000000
000000
000000
3F0F00
3F0F00
3F0F00
3F0F00
3F0F00
3F0F00
F3CF00
F3CF00
F3CF00
F3CF00
F3CF00
F3CF00
F0FC00
F0FC00
F0FC00
F0FC00
F0FC00
F0FC00
000000
000000
000000
000000
000000
000000
000000
000000
000000
000000
000000
000000
000000
000000
000000
000000
000000
000000
000000
000000
000000
000000
000000
000000
000000
000000
000000
000000
000000
000000
000000
000000
000000
000000
000000
000000
ENDCHAR
STARTCHAR U+007D
ENCODING 125
SWIDTH 1000 0
BBX 18 60 0 -12
DWIDTH 18 0
BITMAP
000000
000000
000000
000000
000000
000000
FF0000
FF0000
FF0000
FF0000
FF0000
FF0000
03C000
03C000
03C000
03C000
03C000
03C000
0F0000
0F0000
0F0000
0F0000
0F0000
0F0000
03F000
03F000
03F000
03F000
03F000
03F000
0F0000
0F0000
0F0000
0F0000
0F0000
0F0000
03C000
03C000
03C000
03C000
03C000
03C000
FF0000
FF0000
FF0000
FF0000
FF0000
FF0000
000000
000000
000000
000000
000000
000000
000000
000000
000000
000000
000000
000000
ENDCHAR
STARTCHAR U+007C
ENCODING 124
SWIDTH 1000 0
BBX 18 60 0 -12
DWIDTH 18 0
BITMAP
000000
000000
000000
000000
000000
000000
03C000
03C000
03C000
03C000
03C000
03C000
03C000
03C000
03C000
03C000
03C000
03C000
03C000
03C000
03C000
03C000
03C000
03C000
03C000
03C000
03C000
03C000
03C000
03C000
03C000
03C000
03C000
03C000
03C000
03C000
03C000
03C000
03C000
03C000
03C000
03C000
03C000
03C000
03C000
03C000
03C000
03C000
000000
000000
000000
000000
000000
000000
000000
000000
000000
000000
000000
000000
ENDCHAR
STARTCHAR U+007B
ENCODING 123
SWIDTH 1000 0
BBX 18 60 0 -12
DWIDTH 18 0
BITMAP
000000
000000
000000
000000
000000
000000
00FF00
00FF00
00FF00
00FF00
00FF00
00FF00
03C000
03C000
03C000
03C000
03C000
03C000
00F000
00F000
00F000
00F000
00F000
00F000
0FC000
0FC000
0FC000
0FC000
0FC000
0FC000
00F000
00F000
00F000
00F000
00F000
00F000
03C000
03C000
03C000
03C000
03C000
03C000
00FF00
00FF00
00FF00
00FF00
00FF00
00FF00
000000
000000
000000
000000
000000
000000
000000
000000
000000
000000
000000
000000
ENDCHAR
STARTCHAR U+007A
ENCODING 122
SWIDTH 1000 0
BBX 18 60 0 -12
DWIDTH 18 0
BITMAP
000000
000000
000000
000000
000000
000000
000000
000000
000000
000000
000000
000000
000000
000000
000000
000000
000000
000000
FFFF00
FFFF00
FFFF00
FFFF00
FFFF00
FFFF00
003C00
003C00
003C00
003C00
003C00
003C00
03F000
03F000
03F000
03F000
03F000
03F000
0F0000
0F0000
0F0000
0F0000
0F0000
0F0000
FFFF00
FFFF00
FFFF00
FFFF00
FFFF00
FFFF00
000000
000000
000000
000000
000000
000000
000000
000000
000000
000000
000000
000000
ENDCHAR
STARTCHAR U+0079
ENCODING 121
SWIDTH 1000 0
BBX 18 60 0 -12
DWIDTH 18 0
BITMAP
000000
000000
000000
000000
000000
000000
000000
000000
000000
000000
000000
000000
000000
000000
000000
000000
000000
000000
F03C00
F03C00
F03C00
F03C00
F03C00
F03C00
F03C00
F03C00
F03C00
F03C00
F03C00
F03C00
F0FC00
F0FC00
F0FC00
F0FC00
F0FC00
F0FC00
3FFC00
3FFC00
3FFC00
3FFC00
3FFC00
3FFC00
003C00
003C00
003C00
003C00
003C00
003C00
F03C00
F03C00
F03C00
F03C00
F03C00
F03C00
3FF000
3FF000
3FF000
3FF000
3FF000
3FF000
ENDCHAR
STARTCHAR U+0078
ENCODING 120
SWIDTH 1000 0
BBX 18 60 0 -12
DWIDTH 18 0
BITMAP
000000
000000
000000
000000
000000
000000
000000
000000
000000
000000
000000
000000
000000
000000
000000
000000
000000
000000
F03C00
F03C00
F03C00
F03C00
F03C00
F03C00
3CF000
3CF000
3CF000
3CF000
3CF000
3CF000
0FC000
0FC000
0FC000
0FC000
0FC000
0FC000
3CF000
3CF000
3CF000
3CF000
3CF000
3CF000
F03C00
F03C00
F03C00
F03C00
F03C00
F03C00
000000
000000
000000
000000
000000
000000
000000
000000
000000
000000
000000
000000
ENDCHAR
STARTCHAR U+0077
ENCODING 119
SWIDTH 1000 0
BBX 18 60 0 -12
DWIDTH 18 0
BITMAP
000000
000000
000000
000000
000000
000000
000000
000000
000000
000000
000000
000000
000000
000000
000000
000000
000000
000000
F00F00
F00F00
F00F00
F00F00
F00F00
F00F00
F00F00
F00F00
F00F00
F00F00
F00F00
F00F00
F3CF00
F3CF00
F3CF00
F3CF00
F3CF00
F3CF00
FFFF00
FFFF00
FFFF00
FFFF00
FFFF00
FFFF00
3C3C00
3C3C00
3C3C00
3C3C00
3C3C00
3C3C00
000000
000000
000000
000000
000000
000000
000000
000000
000000
000000
000000
000000
ENDCHAR
STARTCHAR U+0076
ENCODING 118
SWIDTH 1000 0
BBX 18 60 0 -12
DWIDTH 18 0
BITMAP
000000
000000
000000
000000
000000
000000
000000
000000
000000
000000
000000
000000
000000
000000
000000
000000
000000
000000
F00F00
F00F00
F00F00
F00F00
F00F00
F00F00
F00F00
F00F00
F00F00
F00F00
F00F00
F00F00
3C3C00
3C3C00
3C3C00
3C3C00
3C3C00
3C3C00
0FF000
0FF000
0FF000
0FF000
0FF000
0FF000
03C000
03C000
03C000
03C000
03C000
03C000
000000
000000
000000
000000
000000
000000
000000
000000
000000
000000
000000
000000
ENDCHAR
STARTCHAR U+0075
ENCODING 117
SWIDTH 1000 0
BBX 18 60 0 -12
DWIDTH 18 0
BITMAP
000000
000000
000000
000000
000000
000000
000000
000000
000000
000000
000000
000000
000000
000000
000000
000000
000000
000000
F03C00
F03C00
F03C00
F03C00
F03C00
F03C00
F03C00
F03C00
F03C00
F03C00
F03C00
F03C00
F03C00
F03C00
F03C00
F03C00
F03C00
F03C00
F03C00
F03C00
F03C00
F03C00
F03C00
F03C00
3FFF00
3FFF00
3FFF00
3FFF00
3FFF00
3FFF00
000000
000000
000000
000000
000000
000000
000000
000000
000000
000000
000000
000000
ENDCHAR
STARTCHAR U+0074
ENCODING 116
SWIDTH 1000 0
BBX 18 60 0 -12
DWIDTH 18 0
BITMAP
000000
000000
000000
000000
000000
000000
0F0000
0F0000
0F0000
0F0000
0F0000
0F0000
0F0000
0F0000
0F0000
0F0000
0F0000
0F0000
FFF000
FFF000
FFF000
FFF000
FFF000
FFF000
0F0000
0F0000
0F0000
0F0000
0F0000
0F0000
0F0000
0F0000
0F0000
0F0000
0F0000
0F0000
0F3C00
0F3C00
0F3C00
0F3C00
0F3C00
0F3C00
03F000
03F000
03F000
03F000
03F000
03F000
000000
000000
000000
000000
000000
000000
000000
000000
000000
000000
000000
000000
ENDCHAR
STARTCHAR U+0073
ENCODING 115
SWIDTH 1000 0
BBX 18 60 0 -12
DWIDTH 18 0
BITMAP
000000
000000
000000
000000
000000
000000
000000
000000
000000
000000
000000
000000
000000
000000
000000
000000
000000
000000
3FFC00
3FFC00
3FFC00
3FFC00
3FFC00
3FFC00
F00000
F00000
F00000
F00000
F00000
F00000
3FFC00
3FFC00
3FFC00
3FFC00
3FFC00
3FFC00
000F00
000F00
000F00
000F00
000F00
000F00
FFFC00
FFFC00
FFFC00
FFFC00
FFFC00
FFFC00
000000
000000
000000
000000
000000
000000
000000
000000
000000
000000
000000
000000
ENDCHAR
STARTCHAR U+0072
ENCODING 114
SWIDTH 1000 0
BBX 18 60 0 -12
DWIDTH 18 0
BITMAP
000000
000000
000000
000000
000000
000000
000000
000000
000000
000000
000000
000000
000000
000000
000000
000000
000000
000000
F3FC00
F3FC00
F3FC00
F3FC00
F3FC00
F3FC00
3F0F00
3F0F00
3F0F00
3F0F00
3F0F00
3F0F00
3C0000
3C0000
3C0000
3C0000
3C0000
3C0000
3C0000
3C0000
3C0000
3C0000
3C0000
3C0000
3C0000
3C0000
3C0000
3C0000
3C0000
3C0000
000000
000000
000000
000000
000000
000000
000000
000000
000000
000000
000000
000000
ENDCHAR
STARTCHAR U+0071
ENCODING 113
SWIDTH 1000 0
BBX 18 60 0 -12
DWIDTH 18 0
BITMAP
000000
000000
000000
000000
000000
000000
000000
000000
000000
000000
000000
000000
000000
000000
000000
000000
000000
000000
3FFF00
3FFF00
3FFF00
3FFF00
3FFF00
3FFF00
F03F00
F03F00
F03F00
F03F00
F03F00
F03F00
F03F00
F03F00
F03F00
F03F00
F03F00
F03F00
3FFF00
3FFF00
3FFF00
3FFF00
3FFF00
3FFF00
000F00
000F00
000F00
000F00
000F00
000F00
000F00
000F00
000F00
000F00
000F00
000F00
000F00
000F00
000F00
000F00
000F00
000F00
ENDCHAR
STARTCHAR U+0070
ENCODING 112
SWIDTH 1000 0
BBX 18 60 0 -12
DWIDTH 18 0
BITMAP
000000
000000
000000
000000
000000
000000
000000
000000
000000
000000
000000
000000
000000
000000
000000
000000
000000
000000
FFFC00
FFFC00
FFFC00
FFFC00
FFFC00
FFFC00
FC0F00
FC0F00
FC0F00
FC0F00
FC0F00
FC0F00
FC0F00
FC0F00
FC0F00
FC0F00
FC0F00
FC0F00
FFFC00
FFFC00
FFFC00
FFFC00
FFFC00
FFFC00
F00000
F00000
F00000
F00000
F00000
F00000
F00000
F00000
F00000
F00000
F00000
F00000
F00000
F00000
F00000
F00000
F00000
F00000
ENDCHAR
STARTCHAR U+006f
ENCODING 111
SWIDTH 1000 0
BBX 18 60 0 -12
DWIDTH 18 0
BITMAP
000000
000000
000000
000000
000000
000000
000000
000000
000000
000000
000000
000000
000000
000000
000000
000000
000000
000000
3FFC00
3FFC00
3FFC00
3FFC00
3FFC00
3FFC00
F00F00
F00F00
F00F00
F00F00
F00F00
F00F00
F00F00
F00F00
F00F00
F00F00
F00F00
F00F00
F00F00
F00F00
F00F00
F00F00
F00F00
F00F00
3FFC00
3FFC00
3FFC00
3FFC00
3FFC00
3FFC00
000000
000000
000000
000000
000000
000000
000000
000000
000000
000000
000000
000000
ENDCHAR
STARTCHAR U+006e
ENCODING 110
SWIDTH 1000 0
BBX 18 60 0 -12
DWIDTH 18 0
BITMAP
000000
000000
000000
000000
000000
000000
000000
000000
000000
000000
000000
000000
000000
000000
000000
000000
000000
000000
FFFC00
FFFC00
FFFC00
FFFC00
FFFC00
FFFC00
FC0F00
FC0F00
FC0F00
FC0F00
FC0F00
FC0F00
F00F00
F00F00
F00F00
F00F00
F00F00
F00F00
F00F00
F00F00
F00F00
F00F00
F00F00
F00F00
F00F00
F00F00
F00F00
F00F00
F00F00
F00F00
000000
000000
000000
000000
000000
000000
000000
000000
000000
000000
000000
000000
ENDCHAR
STARTCHAR U+006d
ENCODING 109
SWIDTH 1000 0
BBX 18 60 0 -12
DWIDTH 18 0
BITMAP
000000
000000
000000
000000
000000
000000
000000
000000
000000
000000
000000
000000
000000
000000
000000
000000
000000
000000
FC3C00
FC3C00
FC3C00
FC3C00
FC3C00
FC3C00
FFFF00
FFFF00
FFFF00
FFFF00
FFFF00
FFFF00
F3CF00
F3CF00
F3CF00
F3CF00
F3CF00
F3CF00
F3CF00
F3CF00
F3CF00
F3CF00
F3CF00
F3CF00
F00F00
F00F00
F00F00
F00F00
F00F00
F00F00
000000
000000
000000
000000
000000
000000
000000
000000
000000
000000
000000
000000
ENDCHAR
STARTCHAR U+006c
ENCODING 108
SWIDTH 1000 0
BBX 18 60 0 -12
DWIDTH 18 0
BITMAP
000000
000000
000000
000000
000000
000000
0FC000
0FC000
0FC000
0FC000
0FC000
0FC000
03C000
03C000
03C000
03C000
03C000
03C000
03C000
03C000
03C000
03C000
03C000
03C000
03C000
03C000
03C000
03C000
03C000
03C000
03C000
03C000
03C000
03C000
03C000
03C000
03C000
03C000
03C000
03C000
03C000
03C000
0FF000
0FF000
0FF000
0FF000
0FF000
0FF000
000000
000000
000000
000000
000000
000000
000000
000000
000000
000000
000000
000000
ENDCHAR
STARTCHAR U+006b
ENCODING 107
SWIDTH 1000 0
BBX 18 60 0 -12
DWIDTH 18 0
BITMAP
000000
000000
000000
000000
000000
000000
F00000
F00000
F00000
F00000
F00000
F00000
F00000
F00000
F00000
F00000
F00000
F00000
F0F000
F0F000
F0F000
F0F000
F0F000
F0F000
F3C000
F3C000
F3C000
F3C000
F3C000
F3C000
FF0000
FF0000
FF0000
FF0000
FF0000
FF0000
F0F000
F0F000
F0F000
F0F000
F0F000
F0F000
F00F00
F00F00
F00F00
F00F00
F00F00
F00F00
000000
000000
000000
000000
000000
000000
000000
000000
000000
000000
000000
000000
ENDCHAR
STARTCHAR U+006a
ENCODING 106
SWIDTH 1000 0
BBX 18 60 0 -12
DWIDTH 18 0
BITMAP
000000
000000
000000
000000
000000
000000
003C00
003C00
003C00
003C00
003C00
003C00
000000
000000
000000
000000
000000
000000
003C00
003C00
003C00
003C00
003C00
003C00
003C00
003C00
003C00
003C00
003C00
003C00
003C00
003C00
003C00
003C00
003C00
003C00
003C00
003C00
003C00
003C00
003C00
003C00
F03C00
F03C00
F03C00
F03C00
F03C00
F03C00
F03C00
F03C00
F03C00
F03C00
F03C00
F03C00
3FF000
3FF000
3FF000
3FF000
3FF000
3FF000
ENDCHAR
STARTCHAR U+0069
ENCODING 105
SWIDTH 1000 0
BBX 18 60 0 -12
DWIDTH 18 0
BITMAP
000000
000000
000000
000000
000000
000000
03C000
03C000
03C000
03C000
03C000
03C000
000000
000000
000000
000000
000000
000000
0FC000
0FC000
0FC000
0FC000
0FC000
0FC000
03C000
03C000
03C000
03C000
03C000
03C000
03C000
03C000
03C000
03C000
03C000
03C000
03C000
03C000
03C000
03C000
03C000
03C000
3FFC00
3FFC00
3FFC00
3FFC00
3FFC00
3FFC00
000000
000000
000000
000000
000000
000000
000000
000000
000000
000000
000000
000000
ENDCHAR
STARTCHAR U+0068
ENCODING 104
SWIDTH 1000 0
BBX 18 60 0 -12
DWIDTH 18 0
BITMAP
000000
000000
000000
000000
000000
000000
F00000
F00000
F00000
F00000
F00000
F00000
F00000
F00000
F00000
F00000
F00000
F00000
FFFC00
FFFC00
FFFC00
FFFC00
FFFC00
FFFC00
FC0F00
FC0F00
FC0F00
FC0F00
FC0F00
FC0F00
F00F00
F00F00
F00F00
F00F00
F00F00
F00F00
F00F00
F00F00
F00F00
F00F00
F00F00
F00F00
F00F00
F00F00
F00F00
F00F00
F00F00
F00F00
000000
000000
000000
000000
000000
000000
000000
000000
000000
000000
000000
000000
ENDCHAR
STARTCHAR U+0067
ENCODING 103
SWIDTH 1000 0
BBX 18 60 0 -12
DWIDTH 18 0
BITMAP
000000
000000
000000
000000
000000
000000
000000
000000
000000
000000
000000
000000
000000
000000
000000
000000
000000
000000
3FFF00
3FFF00
3FFF00
3FFF00
3FFF00
3FFF00
F03C00
F03C00
F03C00
F03C00
F03C00
F03C00
3FF000
3FF000
3FF000
3FF000
3FF000
3FF000
F00000
F00000
F00000
F00000
F00000
F00000
3FFC00
3FFC00
3FFC00
3FFC00
3FFC00
3FFC00
F00F00
F00F00
F00F00
F00F00
F00F00
F00F00
3FFC00
3FFC00
3FFC00
3FFC00
3FFC00
3FFC00
ENDCHAR
STARTCHAR U+0066
ENCODING 102
SWIDTH 1000 0
BBX 18 60 0 -12
DWIDTH 18 0
BITMAP
000000
000000
000000
000000
000000
000000
03FC00
03FC00
03FC00
03FC00
03FC00
03FC00
0F0F00
0F0F00
0F0F00
0F0F00
0F0F00
0F0F00
0F0000
0F0000
0F0000
0F0000
0F0000
0F0000
FFF000
FFF000
FFF000
FFF000
FFF000
FFF000
0F0000
0F0000
0F0000
0F0000
0F0000
0F0000
0F0000
0F0000
0F0000
0F0000
0F0000
0F0000
0F0000
0F0000
0F0000
0F0000
0F0000
0F0000
000000
000000
000000
000000
000000
000000
000000
000000
000000
000000
000000
000000
ENDCHAR
STARTCHAR U+0065
ENCODING 101
SWIDTH 1000 0
BBX 18 60 0 -12
DWIDTH 18 0
BITMAP
000000
000000
000000
000000
000000
000000
000000
000000
000000
000000
000000
000000
000000
000000
000000
000000
000000
000000
3FFC00
3FFC00
3FFC00
3FFC00
3FFC00
3FFC00
F00F00
F00F00
F00F00
F00F00
F00F00
F00F00
FFFF00
FFFF00
FFFF00
FFFF00
FFFF00
FFFF00
F00000
F00000
F00000
F00000
F00000
F00000
3FFC00
3FFC00
3FFC00
3FFC00
3FFC00
3FFC00
000000
000000
000000
000000
000000
000000
000000
000000
000000
000000
000000
000000
ENDCHAR
STARTCHAR U+0064
ENCODING 100
SWIDTH 1000 0
BBX 18 60 0 -12
DWIDTH 18 0
BITMAP
000000
000000
000000
000000
000000
000000
000F00
000F00
000F00
000F00
000F00
000F00
000F00
000F00
000F00
000F00
000F00
000F00
3FFF00
3FFF00
3FFF00
3FFF00
3FFF00
3FFF00
F03F00
F03F00
F03F00
F03F00
F03F00
F03F00
F00F00
F00F00
F00F00
F00F00
F00F00
F00F00
F03F00
F03F00
F03F00
F03F00
F03F00
F03F00
3FFF00
3FFF00
3FFF00
3FFF00
3FFF00
3FFF00
000000
000000
000000
000000
000000
000000
000000
000000
000000
000000
000000
000000
ENDCHAR
STARTCHAR U+0063
ENCODING 99
SWIDTH 1000 0
BBX 18 60 0 -12
DWIDTH 18 0
BITMAP
000000
000000
000000
000000
000000
000000
000000
000000
000000
000000
000000
000000
000000
000000
000000
000000
000000
000000
3FFC00
3FFC00
3FFC00
3FFC00
3FFC00
3FFC00
F00F00
F00F00
F00F00
F00F00
F00F00
F00F00
F00000
F00000
F00000
F00000
F00000
F00000
F00000
F00000
F00000
F00000
F00000
F00000
3FFF00
3FFF00
3FFF00
3FFF00
3FFF00
3FFF00
000000
000000
000000
000000
000000
000000
000000
000000
000000
000000
000000
000000
ENDCHAR
STARTCHAR U+0062
ENCODING 98
SWIDTH 1000 0
BBX 18 60 0 -12
DWIDTH 18 0
BITMAP
000000
000000
000000
000000
000000
000000
F00000
F00000
F00000
F00000
F00000
F00000
F00000
F00000
F00000
F00000
F00000
F00000
FFFC00
FFFC00
FFFC00
FFFC00
FFFC00
FFFC00
FC0F00
FC0F00
FC0F00
FC0F00
FC0F00
FC0F00
F00F00
F00F00
F00F00
F00F00
F00F00
F00F00
FC0F00
FC0F00
FC0F00
FC0F00
FC0F00
FC0F00
FFFC00
FFFC00
FFFC00
FFFC00
FFFC00
FFFC00
000000
000000
000000
000000
000000
000000
000000
000000
000000
000000
000000
000000
ENDCHAR
STARTCHAR U+0061
ENCODING 97
SWIDTH 1000 0
BBX 18 60 0 -12
DWIDTH 18 0
BITMAP
000000
000000
000000
000000
000000
000000
000000
000000
000000
000000
000000
000000
000000
000000
000000
000000
000000
000000
3FFC00
3FFC00
3FFC00
3FFC00
3FFC00
3FFC00
000F00
000F00
000F00
000F00
000F00
000F00
3FFF00
3FFF00
3FFF00
3FFF00
3FFF00
3FFF00
F03F00
F03F00
F03F00
F03F00
F03F00
F03F00
3FFF00
3FFF00
3FFF00
3FFF00
3FFF00
3FFF00
000000
000000
000000
000000
000000
000000
000000
000000
000000
000000
000000
000000
ENDCHAR
STARTCHAR U+0060
ENCODING 96
SWIDTH 1000 0
BBX 18 60 0 -12
DWIDTH 18 0
BITMAP
000000
000000
000000
000000
000000
000000
0FC000
0FC000
0FC000
0FC000
0FC000
0FC000
03C000
03C000
03C000
03C000
03C000
03C000
00F000
00F000
00F000
00F000
00F000
00F000
000000
000000
000000
000000
000000
000000
000000
000000
000000
000000
000000
000000
000000
000000
000000
000000
000000
000000
000000
000000
000000
000000
000000
000000
000000
000000
000000
000000
000000
000000
000000
000000
000000
000000
000000
000000
ENDCHAR
STARTCHAR U+005F
ENCODING 95
SWIDTH 1000 0
BBX 18 60 0 -12
DWIDTH 18 0
BITMAP
000000
000000
000000
000000
000000
000000
000000
000000
000000
000000
000000
000000
000000
000000
000000
000000
000000
000000
000000
000000
000000
000000
000000
000000
000000
000000
000000
000000
000000
000000
000000
000000
000000
000000
000000
000000
000000
000000
000000
000000
000000
000000
FFFF00
FFFF00
FFFF00
FFFF00
FFFF00
FFFF00
000000
000000
000000
000000
000000
000000
000000
000000
000000
000000
000000
000000
ENDCHAR
STARTCHAR U+005E
ENCODING 94
SWIDTH 1000 0
BBX 18 60 0 -12
DWIDTH 18 0
BITMAP
000000
000000
000000
000000
000000
000000
03C000
03C000
03C000
03C000
03C000
03C000
0FF000
0FF000
0FF000
0FF000
0FF000
0FF000
3C3C00
3C3C00
3C3C00
3C3C00
3C3C00
3C3C00
F00F00
F00F00
F00F00
F00F00
F00F00
F00F00
000000
000000
000000
000000
000000
000000
000000
000000
000000
000000
000000
000000
000000
000000
000000
000000
000000
000000
000000
000000
000000
000000
000000
000000
000000
000000
000000
000000
000000
000000
ENDCHAR
STARTCHAR U+005D
ENCODING 93
SWIDTH 1000 0
BBX 18 60 0 -12
DWIDTH 18 0
BITMAP
000000
000000
000000
000000
000000
000000
3FF000
3FF000
3FF000
3FF000
3FF000
3FF000
00F000
00F000
00F000
00F000
00F000
00F000
00F000
00F000
00F000
00F000
00F000
00F000
00F000
00F000
00F000
00F000
00F000
00F000
00F000
00F000
00F000
00F000
00F000
00F000
00F000
00F000
00F000
00F000
00F000
00F000
3FF000
3FF000
3FF000
3FF000
3FF000
3FF000
000000
000000
000000
000000
000000
000000
000000
000000
000000
000000
000000
000000
ENDCHAR
STARTCHAR U+005C
ENCODING 92
SWIDTH 1000 0
BBX 18 60 0 -12
DWIDTH 18 0
BITMAP
000000
000000
000000
000000
000000
000000
F00000
F00000
F00000
F00000
F00000
F00000
3C0000
3C0000
3C0000
3C0000
3C0000
3C0000
0F0000
0F0000
0F0000
0F0000
0F0000
0F0000
03C000
03C000
03C000
03C000
03C000
03C000
00F000
00F000
00F000
00F000
00F000
00F000
003C00
003C00
003C00
003C00
003C00
003C00
000F00
000F00
000F00
000F00
000F00
000F00
000000
000000
000000
000000
000000
000000
000000
000000
000000
000000
000000
000000
ENDCHAR
STARTCHAR U+005B
ENCODING 91
SWIDTH 1000 0
BBX 18 60 0 -12
DWIDTH 18 0
BITMAP
000000
000000
000000
000000
000000
000000
0FFC00
0FFC00
0FFC00
0FFC00
0FFC00
0FFC00
0F0000
0F0000
0F0000
0F0000
0F0000
0F0000
0F0000
0F0000
0F0000
0F0000
0F0000
0F0000
0F0000
0F0000
0F0000
0F0000
0F0000
0F0000
0F0000
0F0000
0F0000
0F0000
0F0000
0F0000
0F0000
0F0000
0F0000
0F0000
0F0000
0F0000
0FFC00
0FFC00
0FFC00
0FFC00
0FFC00
0FFC00
000000
000000
000000
000000
000000
000000
000000
000000
000000
000000
000000
000000
ENDCHAR
STARTCHAR U+005A
ENCODING 90
SWIDTH 1000 0
BBX 18 60 0 -12
DWIDTH 18 0
BITMAP
000000
000000
000000
000000
000000
000000
FFFF00
FFFF00
FFFF00
FFFF00
FFFF00
FFFF00
003C00
003C00
003C00
003C00
003C00
003C00
00F000
00F000
00F000
00F000
00F000
00F000
03C000
03C000
03C000
03C000
03C000
03C000
0F0000
0F0000
0F0000
0F0000
0F0000
0F0000
3C0000
3C0000
3C0000
3C0000
3C0000
3C0000
FFFF00
FFFF00
FFFF00
FFFF00
FFFF00
FFFF00
000000
000000
000000
000000
000000
000000
000000
000000
000000
000000
000000
000000
ENDCHAR
STARTCHAR U+0059
ENCODING 89
SWIDTH 1000 0
BBX 18 60 0 -12
DWIDTH 18 0
BITMAP
000000
000000
000000
000000
000000
000000
F00F00
F00F00
F00F00
F00F00
F00F00
F00F00
3C3C00
3C3C00
3C3C00
3C3C00
3C3C00
3C3C00
0FF000
0FF000
0FF000
0FF000
0FF000
0FF000
03C000
03C000
03C000
03C000
03C000
03C000
03C000
03C000
03C000
03C000
03C000
03C000
03C000
03C000
03C000
03C000
03C000
03C000
03C000
03C000
03C000
03C000
03C000
03C000
000000
000000
000000
000000
000000
000000
000000
000000
000000
000000
000000
000000
ENDCHAR
STARTCHAR U+0058
ENCODING 88
SWIDTH 1000 0
BBX 18 60 0 -12
DWIDTH 18 0
BITMAP
000000
000000
000000
000000
000000
000000
F00F00
F00F00
F00F00
F00F00
F00F00
F00F00
3C3C00
3C3C00
3C3C00
3C3C00
3C3C00
3C3C00
0FF000
0FF000
0FF000
0FF000
0FF000
0FF000
03C000
03C000
03C000
03C000
03C000
03C000
0FF000
0FF000
0FF000
0FF000
0FF000
0FF000
3C3C00
3C3C00
3C3C00
3C3C00
3C3C00
3C3C00
F00F00
F00F00
F00F00
F00F00
F00F00
F00F00
000000
000000
000000
000000
000000
000000
000000
000000
000000
000000
000000
000000
ENDCHAR
STARTCHAR U+0057
ENCODING 87
SWIDTH 1000 0
BBX 18 60 0 -12
DWIDTH 18 0
BITMAP
000000
000000
000000
000000
000000
000000
F00F00
F00F00
F00F00
F00F00
F00F00
F00F00
F00F00
F00F00
F00F00
F00F00
F00F00
F00F00
F00F00
F00F00
F00F00
F00F00
F00F00
F00F00
F3CF00
F3CF00
F3CF00
F3CF00
F3CF00
F3CF00
F3CF00
F3CF00
F3CF00
F3CF00
F3CF00
F3CF00
FFFF00
FFFF00
FFFF00
FFFF00
FFFF00
FFFF00
3C3C00
3C3C00
3C3C00
3C3C00
3C3C00
3C3C00
000000
000000
000000
000000
000000
000000
000000
000000
000000
000000
000000
000000
ENDCHAR
STARTCHAR U+0056
ENCODING 86
SWIDTH 1000 0
BBX 18 60 0 -12
DWIDTH 18 0
BITMAP
000000
000000
000000
000000
000000
000000
F00F00
F00F00
F00F00
F00F00
F00F00
F00F00
F00F00
F00F00
F00F00
F00F00
F00F00
F00F00
3C3C00
3C3C00
3C3C00
3C3C00
3C3C00
3C3C00
3C3C00
3C3C00
3C3C00
3C3C00
3C3C00
3C3C00
0FF000
0FF000
0FF000
0FF000
0FF000
0FF000
0FF000
0FF000
0FF000
0FF000
0FF000
0FF000
03C000
03C000
03C000
03C000
03C000
03C000
000000
000000
000000
000000
000000
000000
000000
000000
000000
000000
000000
000000
ENDCHAR
STARTCHAR U+0055
ENCODING 85
SWIDTH 1000 0
BBX 18 60 0 -12
DWIDTH 18 0
BITMAP
000000
000000
000000
000000
000000
000000
F00F00
F00F00
F00F00
F00F00
F00F00
F00F00
F00F00
F00F00
F00F00
F00F00
F00F00
F00F00
F00F00
F00F00
F00F00
F00F00
F00F00
F00F00
F00F00
F00F00
F00F00
F00F00
F00F00
F00F00
F00F00
F00F00
F00F00
F00F00
F00F00
F00F00
F00F00
F00F00
F00F00
F00F00
F00F00
F00F00
3FFC00
3FFC00
3FFC00
3FFC00
3FFC00
3FFC00
000000
000000
000000
000000
000000
000000
000000
000000
000000
000000
000000
000000
ENDCHAR
STARTCHAR U+0054
ENCODING 84
SWIDTH 1000 0
BBX 18 60 0 -12
DWIDTH 18 0
BITMAP
000000
000000
000000
000000
000000
000000
FFFF00
FFFF00
FFFF00
FFFF00
FFFF00
FFFF00
03C000
03C000
03C000
03C000
03C000
03C000
03C000
03C000
03C000
03C000
03C000
03C000
03C000
03C000
03C000
03C000
03C000
03C000
03C000
03C000
03C000
03C000
03C000
03C000
03C000
03C000
03C000
03C000
03C000
03C000
03C000
03C000
03C000
03C000
03C000
03C000
000000
000000
000000
000000
000000
000000
000000
000000
000000
000000
000000
000000
ENDCHAR
STARTCHAR U+0053
ENCODING 83
SWIDTH 1000 0
BBX 18 60 0 -12
DWIDTH 18 0
BITMAP
000000
000000
000000
000000
000000
000000
3FFC00
3FFC00
3FFC00
3FFC00
3FFC00
3FFC00
F00F00
F00F00
F00F00
F00F00
F00F00
F00F00
F00000
F00000
F00000
F00000
F00000
F00000
3FFC00
3FFC00
3FFC00
3FFC00
3FFC00
3FFC00
000F00
000F00
000F00
000F00
000F00
000F00
F00F00
F00F00
F00F00
F00F00
F00F00
F00F00
3FFC00
3FFC00
3FFC00
3FFC00
3FFC00
3FFC00
000000
000000
000000
000000
000000
000000
000000
000000
000000
000000
000000
000000
ENDCHAR
STARTCHAR U+0052
ENCODING 82
SWIDTH 1000 0
BBX 18 60 0 -12
DWIDTH 18 0
BITMAP
000000
000000
000000
000000
000000
000000
FFFC00
FFFC00
FFFC00
FFFC00
FFFC00
FFFC00
F00F00
F00F00
F00F00
F00F00
F00F00
F00F00
F00F00
F00F00
F00F00
F00F00
F00F00
F00F00
FFFC00
FFFC00
FFFC00
FFFC00
FFFC00
FFFC00
F0F000
F0F000
F0F000
F0F000
F0F000
F0F000
F03C00
F03C00
F03C00
F03C00
F03C00
F03C00
F00F00
F00F00
F00F00
F00F00
F00F00
F00F00
000000
000000
000000
000000
000000
000000
000000
000000
000000
000000
000000
000000
ENDCHAR
STARTCHAR U+0051
ENCODING 81
SWIDTH 1000 0
BBX 18 60 0 -12
DWIDTH 18 0
BITMAP
000000
000000
000000
000000
000000
000000
3FFC00
3FFC00
3FFC00
3FFC00
3FFC00
3FFC00
F00F00
F00F00
F00F00
F00F00
F00F00
F00F00
F00F00
F00F00
F00F00
F00F00
F00F00
F00F00
F00F00
F00F00
F00F00
F00F00
F00F00
F00F00
F0FF00
F0FF00
F0FF00
F0FF00
F0FF00
F0FF00
F03C00
F03C00
F03C00
F03C00
F03C00
F03C00
3FFF00
3FFF00
3FFF00
3FFF00
3FFF00
3FFF00
000000
000000
000000
000000
000000
000000
000000
000000
000000
000000
000000
000000
ENDCHAR
STARTCHAR U+0050
ENCODING 80
SWIDTH 1000 0
BBX 18 60 0 -12
DWIDTH 18 0
BITMAP
000000
000000
000000
000000
000000
000000
FFFC00
FFFC00
FFFC00
FFFC00
FFFC00
FFFC00
F00F00
F00F00
F00F00
F00F00
F00F00
F00F00
F00F00
F00F00
F00F00
F00F00
F00F00
F00F00
FFFC00
FFFC00
FFFC00
FFFC00
FFFC00
FFFC00
F00000
F00000
F00000
F00000
F00000
F00000
F00000
F00000
F00000
F00000
F00000
F00000
F00000
F00000
F00000
F00000
F00000
F00000
000000
000000
000000
000000
000000
000000
000000
000000
000000
000000
000000
000000
ENDCHAR
STARTCHAR U+004F
ENCODING 79
SWIDTH 1000 0
BBX 18 60 0 -12
DWIDTH 18 0
BITMAP
000000
000000
000000
000000
000000
000000
3FFC00
3FFC00
3FFC00
3FFC00
3FFC00
3FFC00
F00F00
F00F00
F00F00
F00F00
F00F00
F00F00
F00F00
F00F00
F00F00
F00F00
F00F00
F00F00
F00F00
F00F00
F00F00
F00F00
F00F00
F00F00
F00F00
F00F00
F00F00
F00F00
F00F00
F00F00
F00F00
F00F00
F00F00
F00F00
F00F00
F00F00
3FFC00
3FFC00
3FFC00
3FFC00
3FFC00
3FFC00
000000
000000
000000
000000
000000
000000
000000
000000
000000
000000
000000
000000
ENDCHAR
STARTCHAR U+004E
ENCODING 78
SWIDTH 1000 0
BBX 18 60 0 -12
DWIDTH 18 0
BITMAP
000000
000000
000000
000000
000000
000000
F00F00
F00F00
F00F00
F00F00
F00F00
F00F00
FC0F00
FC0F00
FC0F00
FC0F00
FC0F00
FC0F00
FF0F00
FF0F00
FF0F00
FF0F00
FF0F00
FF0F00
F3CF00
F3CF00
F3CF00
F3CF00
F3CF00
F3CF00
F0FF00
F0FF00
F0FF00
F0FF00
F0FF00
F0FF00
F03F00
F03F00
F03F00
F03F00
F03F00
F03F00
F00F00
F00F00
F00F00
F00F00
F00F00
F00F00
000000
000000
000000
000000
000000
000000
000000
000000
000000
000000
000000
000000
ENDCHAR
STARTCHAR U+004D
ENCODING 77
SWIDTH 1000 0
BBX 18 60 0 -12
DWIDTH 18 0
BITMAP
000000
000000
000000
000000
000000
000000
F00F00
F00F00
F00F00
F00F00
F00F00
F00F00
FC3F00
FC3F00
FC3F00
FC3F00
FC3F00
FC3F00
FFFF00
FFFF00
FFFF00
FFFF00
FFFF00
FFFF00
F3CF00
F3CF00
F3CF00
F3CF00
F3CF00
F3CF00
F00F00
F00F00
F00F00
F00F00
F00F00
F00F00
F00F00
F00F00
F00F00
F00F00
F00F00
F00F00
F00F00
F00F00
F00F00
F00F00
F00F00
F00F00
000000
000000
000000
000000
000000
000000
000000
000000
000000
000000
000000
000000
ENDCHAR
STARTCHAR U+004C
ENCODING 76
SWIDTH 1000 0
BBX 18 60 0 -12
DWIDTH 18 0
BITMAP
000000
000000
000000
000000
000000
000000
F00000
F00000
F00000
F00000
F00000
F00000
F00000
F00000
F00000
F00000
F00000
F00000
F00000
F00000
F00000
F00000
F00000
F00000
F00000
F00000
F00000
F00000
F00000
F00000
F00000
F00000
F00000
F00000
F00000
F00000
F00000
F00000
F00000
F00000
F00000
F00000
FFFF00
FFFF00
FFFF00
FFFF00
FFFF00
FFFF00
000000
000000
000000
000000
000000
000000
000000
000000
000000
000000
000000
000000
ENDCHAR
STARTCHAR U+004B
ENCODING 75
SWIDTH 1000 0
BBX 18 60 0 -12
DWIDTH 18 0
BITMAP
000000
000000
000000
000000
000000
000000
F00F00
F00F00
F00F00
F00F00
F00F00
F00F00
F0FC00
F0FC00
F0FC00
F0FC00
F0FC00
F0FC00
FFC000
FFC000
FFC000
FFC000
FFC000
FFC000
FC0000
FC0000
FC0000
FC0000
FC0000
FC0000
FFC000
FFC000
FFC000
FFC000
FFC000
FFC000
F0FC00
F0FC00
F0FC00
F0FC00
F0FC00
F0FC00
F00F00
F00F00
F00F00
F00F00
F00F00
F00F00
000000
000000
000000
000000
000000
000000
000000
000000
000000
000000
000000
000000
ENDCHAR
STARTCHAR U+004A
ENCODING 74
SWIDTH 1000 0
BBX 18 60 0 -12
DWIDTH 18 0
BITMAP
000000
000000
000000
000000
000000
000000
00FF00
00FF00
00FF00
00FF00
00FF00
00FF00
003C00
003C00
003C00
003C00
003C00
003C00
003C00
003C00
003C00
003C00
003C00
003C00
003C00
003C00
003C00
003C00
003C00
003C00
003C00
003C00
003C00
003C00
003C00
003C00
F03C00
F03C00
F03C00
F03C00
F03C00
F03C00
3FF000
3FF000
3FF000
3FF000
3FF000
3FF000
000000
000000
000000
000000
000000
000000
000000
000000
000000
000000
000000
000000
ENDCHAR
STARTCHAR U+0049
ENCODING 73
SWIDTH 1000 0
BBX 18 60 0 -12
DWIDTH 18 0
BITMAP
000000
000000
000000
000000
000000
000000
3FFC00
3FFC00
3FFC00
3FFC00
3FFC00
3FFC00
03C000
03C000
03C000
03C000
03C000
03C000
03C000
03C000
03C000
03C000
03C000
03C000
03C000
03C000
03C000
03C000
03C000
03C000
03C000
03C000
03C000
03C000
03C000
03C000
03C000
03C000
03C000
03C000
03C000
03C000
3FFC00
3FFC00
3FFC00
3FFC00
3FFC00
3FFC00
000000
000000
000000
000000
000000
000000
000000
000000
000000
000000
000000
000000
ENDCHAR
STARTCHAR U+0048
ENCODING 72
SWIDTH 1000 0
BBX 18 60 0 -12
DWIDTH 18 0
BITMAP
000000
000000
000000
000000
000000
000000
F00F00
F00F00
F00F00
F00F00
F00F00
F00F00
F00F00
F00F00
F00F00
F00F00
F00F00
F00F00
F00F00
F00F00
F00F00
F00F00
F00F00
F00F00
FFFF00
FFFF00
FFFF00
FFFF00
FFFF00
FFFF00
F00F00
F00F00
F00F00
F00F00
F00F00
F00F00
F00F00
F00F00
F00F00
F00F00
F00F00
F00F00
F00F00
F00F00
F00F00
F00F00
F00F00
F00F00
000000
000000
000000
000000
000000
000000
000000
000000
000000
000000
000000
000000
ENDCHAR
STARTCHAR U+0047
ENCODING 71
SWIDTH 1000 0
BBX 18 60 0 -12
DWIDTH 18 0
BITMAP
000000
000000
000000
000000
000000
000000
0FFC00
0FFC00
0FFC00
0FFC00
0FFC00
0FFC00
3C0F00
3C0F00
3C0F00
3C0F00
3C0F00
3C0F00
F00000
F00000
F00000
F00000
F00000
F00000
F00000
F00000
F00000
F00000
F00000
F00000
F0FF00
F0FF00
F0FF00
F0FF00
F0FF00
F0FF00
3C0F00
3C0F00
3C0F00
3C0F00
3C0F00
3C0F00
0FFC00
0FFC00
0FFC00
0FFC00
0FFC00
0FFC00
000000
000000
000000
000000
000000
000000
000000
000000
000000
000000
000000
000000
ENDCHAR
STARTCHAR U+0046
ENCODING 70
SWIDTH 1000 0
BBX 18 60 0 -12
DWIDTH 18 0
BITMAP
000000
000000
000000
000000
000000
000000
FFFF00
FFFF00
FFFF00
FFFF00
FFFF00
FFFF00
F00000
F00000
F00000
F00000
F00000
F00000
F00000
F00000
F00000
F00000
F00000
F00000
FFF000
FFF000
FFF000
FFF000
FFF000
FFF000
F00000
F00000
F00000
F00000
F00000
F00000
F00000
F00000
F00000
F00000
F00000
F00000
F00000
F00000
F00000
F00000
F00000
F00000
000000
000000
000000
000000
000000
000000
000000
000000
000000
000000
000000
000000
ENDCHAR
STARTCHAR U+0045
ENCODING 69
SWIDTH 1000 0
BBX 18 60 0 -12
DWIDTH 18 0
BITMAP
000000
000000
000000
000000
000000
000000
FFFF00
FFFF00
FFFF00
FFFF00
FFFF00
FFFF00
F00000
F00000
F00000
F00000
F00000
F00000
F00000
F00000
F00000
F00000
F00000
F00000
FFF000
FFF000
FFF000
FFF000
FFF000
FFF000
F00000
F00000
F00000
F00000
F00000
F00000
F00000
F00000
F00000
F00000
F00000
F00000
FFFF00
FFFF00
FFFF00
FFFF00
FFFF00
FFFF00
000000
000000
000000
000000
000000
000000
000000
000000
000000
000000
000000
000000
ENDCHAR
STARTCHAR U+0044
ENCODING 68
SWIDTH 1000 0
BBX 18 60 0 -12
DWIDTH 18 0
BITMAP
000000
000000
000000
000000
000000
000000
FFF000
FFF000
FFF000
FFF000
FFF000
FFF000
3C3C00
3C3C00
3C3C00
3C3C00
3C3C00
3C3C00
3C0F00
3C0F00
3C0F00
3C0F00
3C0F00
3C0F00
3C0F00
3C0F00
3C0F00
3C0F00
3C0F00
3C0F00
3C0F00
3C0F00
3C0F00
3C0F00
3C0F00
3C0F00
3C3C00
3C3C00
3C3C00
3C3C00
3C3C00
3C3C00
FFF000
FFF000
FFF000
FFF000
FFF000
FFF000
000000
000000
000000
000000
000000
000000
000000
000000
000000
000000
000000
000000
ENDCHAR
STARTCHAR U+0043
ENCODING 67
SWIDTH 1000 0
BBX 18 60 0 -12
DWIDTH 18 0
BITMAP
000000
000000
000000
000000
000000
000000
0FFC00
0FFC00
0FFC00
0FFC00
0FFC00
0FFC00
3C0F00
3C0F00
3C0F00
3C0F00
3C0F00
3C0F00
F00000
F00000
F00000
F00000
F00000
F00000
F00000
F00000
F00000
F00000
F00000
F00000
F00000
F00000
F00000
F00000
F00000
F00000
3C0F00
3C0F00
3C0F00
3C0F00
3C0F00
3C0F00
0FFC00
0FFC00
0FFC00
0FFC00
0FFC00
0FFC00
000000
000000
000000
000000
000000
000000
000000
000000
000000
000000
000000
000000
ENDCHAR
STARTCHAR U+0042
ENCODING 66
SWIDTH 1000 0
BBX 18 60 0 -12
DWIDTH 18 0
BITMAP
000000
000000
000000
000000
000000
000000
FFFC00
FFFC00
FFFC00
FFFC00
FFFC00
FFFC00
3C0F00
3C0F00
3C0F00
3C0F00
3C0F00
3C0F00
3C0F00
3C0F00
3C0F00
3C0F00
3C0F00
3C0F00
3FFC00
3FFC00
3FFC00
3FFC00
3FFC00
3FFC00
3C0F00
3C0F00
3C0F00
3C0F00
3C0F00
3C0F00
3C0F00
3C0F00
3C0F00
3C0F00
3C0F00
3C0F00
FFFC00
FFFC00
FFFC00
FFFC00
FFFC00
FFFC00
000000
000000
000000
000000
000000
000000
000000
000000
000000
000000
000000
000000
ENDCHAR
STARTCHAR U+0041
ENCODING 65
SWIDTH 1000 0
BBX 18 60 0 -12
DWIDTH 18 0
BITMAP
000000
000000
000000
000000
000000
000000
03C000
03C000
03C000
03C000
03C000
03C000
0FF000
0FF000
0FF000
0FF000
0FF000
0FF000
3C3C00
3C3C00
3C3C00
3C3C00
3C3C00
3C3C00
F00F00
F00F00
F00F00
F00F00
F00F00
F00F00
FFFF00
FFFF00
FFFF00
FFFF00
FFFF00
FFFF00
F00F00
F00F00
F00F00
F00F00
F00F00
F00F00
F00F00
F00F00
F00F00
F00F00
F00F00
F00F00
000000
000000
000000
000000
000000
000000
000000
000000
000000
000000
000000
000000
ENDCHAR
STARTCHAR U+0040
ENCODING 64
SWIDTH 1000 0
BBX 18 60 0 -12
DWIDTH 18 0
BITMAP
000000
000000
000000
000000
000000
000000
3FFC00
3FFC00
3FFC00
3FFC00
3FFC00
3FFC00
F00F00
F00F00
F00F00
F00F00
F00F00
F00F00
F3FF00
F3FF00
F3FF00
F3FF00
F3FF00
F3FF00
FF3F00
FF3F00
FF3F00
FF3F00
FF3F00
FF3F00
F3FF00
F3FF00
F3FF00
F3FF00
F3FF00
F3FF00
F00000
F00000
F00000
F00000
F00000
F00000
3FFC00
3FFC00
3FFC00
3FFC00
3FFC00
3FFC00
000000
000000
000000
000000
000000
000000
000000
000000
000000
000000
000000
000000
ENDCHAR
STARTCHAR U+003F
ENCODING 63
SWIDTH 1000 0
BBX 18 60 0 -12
DWIDTH 18 0
BITMAP
000000
000000
000000
000000
000000
000000
3FFC00
3FFC00
3FFC00
3FFC00
3FFC00
3FFC00
F00F00
F00F00
F00F00
F00F00
F00F00
F00F00
00FC00
00FC00
00FC00
00FC00
00FC00
00FC00
03C000
03C000
03C000
03C000
03C000
03C000
03C000
03C000
03C000
03C000
03C000
03C000
000000
000000
000000
000000
000000
000000
03C000
03C000
03C000
03C000
03C000
03C000
000000
000000
000000
000000
000000
000000
000000
000000
000000
000000
000000
000000
ENDCHAR
STARTCHAR U+003E
ENCODING 62
SWIDTH 1000 0
BBX 18 60 0 -12
DWIDTH 18 0
BITMAP
000000
000000
000000
000000
000000
000000
F00000
F00000
F00000
F00000
F00000
F00000
0F0000
0F0000
0F0000
0F0000
0F0000
0F0000
00F000
00F000
00F000
00F000
00F000
00F000
000F00
000F00
000F00
000F00
000F00
000F00
00F000
00F000
00F000
00F000
00F000
00F000
0F0000
0F0000
0F0000
0F0000
0F0000
0F0000
F00000
F00000
F00000
F00000
F00000
F00000
000000
000000
000000
000000
000000
000000
000000
000000
000000
000000
000000
000000
ENDCHAR
STARTCHAR U+003D
ENCODING 61
SWIDTH 1000 0
BBX 18 60 0 -12
DWIDTH 18 0
BITMAP
000000
000000
000000
000000
000000
000000
000000
000000
000000
000000
000000
000000
000000
000000
000000
000000
000000
000000
FFFF00
FFFF00
FFFF00
FFFF00
FFFF00
FFFF00
000000
000000
000000
000000
000000
000000
FFFF00
FFFF00
FFFF00
FFFF00
FFFF00
FFFF00
000000
000000
000000
000000
000000
000000
000000
000000
000000
000000
000000
000000
000000
000000
000000
000000
000000
000000
000000
000000
000000
000000
000000
000000
ENDCHAR
STARTCHAR U+003C
ENCODING 60
SWIDTH 1000 0
BBX 18 60 0 -12
DWIDTH 18 0
BITMAP
000000
000000
000000
000000
000000
000000
000F00
000F00
000F00
000F00
000F00
000F00
00F000
00F000
00F000
00F000
00F000
00F000
0F0000
0F0000
0F0000
0F0000
0F0000
0F0000
F00000
F00000
F00000
F00000
F00000
F00000
0F0000
0F0000
0F0000
0F0000
0F0000
0F0000
00F000
00F000
00F000
00F000
00F000
00F000
000F00
000F00
000F00
000F00
000F00
000F00
000000
000000
000000
000000
000000
000000
000000
000000
000000
000000
000000
000000
ENDCHAR
STARTCHAR U+003B
ENCODING 59
SWIDTH 1000 0
BBX 18 60 0 -12
DWIDTH 18 0
BITMAP
000000
000000
000000
000000
000000
000000
000000
000000
000000
000000
000000
000000
0FC000
0FC000
0FC000
0FC000
0FC000
0FC000
0FC000
0FC000
0FC000
0FC000
0FC000
0FC000
000000
000000
000000
000000
000000
000000
000000
000000
000000
000000
000000
000000
0FC000
0FC000
0FC000
0FC000
0FC000
0FC000
0F0000
0F0000
0F0000
0F0000
0F0000
0F0000
3C0000
3C0000
3C0000
3C0000
3C0000
3C0000
000000
000000
000000
000000
000000
000000
ENDCHAR
STARTCHAR U+003A
ENCODING 58
SWIDTH 1000 0
BBX 18 60 0 -12
DWIDTH 18 0
BITMAP
000000
000000
000000
000000
000000
000000
000000
000000
000000
000000
000000
000000
0FC000
0FC000
0FC000
0FC000
0FC000
0FC000
0FC000
0FC000
0FC000
0FC000
0FC000
0FC000
000000
000000
000000
000000
000000
000000
000000
000000
000000
000000
000000
000000
0FC000
0FC000
0FC000
0FC000
0FC000
0FC000
0FC000
0FC000
0FC000
0FC000
0FC000
0FC000
000000
000000
000000
000000
000000
000000
000000
000000
000000
000000
000000
000000
ENDCHAR
STARTCHAR U+0039
ENCODING 57
SWIDTH 1000 0
BBX 18 60 0 -12
DWIDTH 18 0
BITMAP
000000
000000
000000
000000
000000
000000
3FFC00
3FFC00
3FFC00
3FFC00
3FFC00
3FFC00
F00F00
F00F00
F00F00
F00F00
F00F00
F00F00
F03F00
F03F00
F03F00
F03F00
F03F00
F03F00
3FFF00
3FFF00
3FFF00
3FFF00
3FFF00
3FFF00
000F00
000F00
000F00
000F00
000F00
000F00
003C00
003C00
003C00
003C00
003C00
003C00
3FF000
3FF000
3FF000
3FF000
3FF000
3FF000
000000
000000
000000
000000
000000
000000
000000
000000
000000
000000
000000
000000
ENDCHAR
STARTCHAR U+0038
ENCODING 56
SWIDTH 1000 0
BBX 18 60 0 -12
DWIDTH 18 0
BITMAP
000000
000000
000000
000000
000000
000000
3FFC00
3FFC00
3FFC00
3FFC00
3FFC00
3FFC00
F00F00
F00F00
F00F00
F00F00
F00F00
F00F00
F00F00
F00F00
F00F00
F00F00
F00F00
F00F00
3FFC00
3FFC00
3FFC00
3FFC00
3FFC00
3FFC00
F00F00
F00F00
F00F00
F00F00
F00F00
F00F00
F00F00
F00F00
F00F00
F00F00
F00F00
F00F00
3FFC00
3FFC00
3FFC00
3FFC00
3FFC00
3FFC00
000000
000000
000000
000000
000000
000000
000000
000000
000000
000000
000000
000000
ENDCHAR
STARTCHAR U+0037
ENCODING 55
SWIDTH 1000 0
BBX 18 60 0 -12
DWIDTH 18 0
BITMAP
000000
000000
000000
000000
000000
000000
FFFF00
FFFF00
FFFF00
FFFF00
FFFF00
FFFF00
000F00
000F00
000F00
000F00
000F00
000F00
003C00
003C00
003C00
003C00
003C00
003C00
00F000
00F000
00F000
00F000
00F000
00F000
03C000
03C000
03C000
03C000
03C000
03C000
0F0000
0F0000
0F0000
0F0000
0F0000
0F0000
0F0000
0F0000
0F0000
0F0000
0F0000
0F0000
000000
000000
000000
000000
000000
000000
000000
000000
000000
000000
000000
000000
ENDCHAR
STARTCHAR U+0036
ENCODING 54
SWIDTH 1000 0
BBX 18 60 0 -12
DWIDTH 18 0
BITMAP
000000
000000
000000
000000
000000
000000
0FFC00
0FFC00
0FFC00
0FFC00
0FFC00
0FFC00
3C0000
3C0000
3C0000
3C0000
3C0000
3C0000
F00000
F00000
F00000
F00000
F00000
F00000
FFFC00
FFFC00
FFFC00
FFFC00
FFFC00
FFFC00
FC0F00
FC0F00
FC0F00
FC0F00
FC0F00
FC0F00
F00F00
F00F00
F00F00
F00F00
F00F00
F00F00
3FFC00
3FFC00
3FFC00
3FFC00
3FFC00
3FFC00
000000
000000
000000
000000
000000
000000
000000
000000
000000
000000
000000
000000
ENDCHAR
STARTCHAR U+0035
ENCODING 53
SWIDTH 1000 0
BBX 18 60 0 -12
DWIDTH 18 0
BITMAP
000000
000000
000000
000000
000000
000000
FFFF00
FFFF00
FFFF00
FFFF00
FFFF00
FFFF00
F00000
F00000
F00000
F00000
F00000
F00000
FFFC00
FFFC00
FFFC00
FFFC00
FFFC00
FFFC00
FC0F00
FC0F00
FC0F00
FC0F00
FC0F00
FC0F00
000F00
000F00
000F00
000F00
000F00
000F00
F00F00
F00F00
F00F00
F00F00
F00F00
F00F00
3FFC00
3FFC00
3FFC00
3FFC00
3FFC00
3FFC00
000000
000000
000000
000000
000000
000000
000000
000000
000000
000000
000000
000000
ENDCHAR
STARTCHAR U+0034
ENCODING 52
SWIDTH 1000 0
BBX 18 60 0 -12
DWIDTH 18 0
BITMAP
000000
000000
000000
000000
000000
000000
00F000
00F000
00F000
00F000
00F000
00F000
03F000
03F000
03F000
03F000
03F000
03F000
0FF000
0FF000
0FF000
0FF000
0FF000
0FF000
3CF000
3CF000
3CF000
3CF000
3CF000
3CF000
FFFF00
FFFF00
FFFF00
FFFF00
FFFF00
FFFF00
00F000
00F000
00F000
00F000
00F000
00F000
00F000
00F000
00F000
00F000
00F000
00F000
000000
000000
000000
000000
000000
000000
000000
000000
000000
000000
000000
000000
ENDCHAR
STARTCHAR U+0033
ENCODING 51
SWIDTH 1000 0
BBX 18 60 0 -12
DWIDTH 18 0
BITMAP
000000
000000
000000
000000
000000
000000
FFFF00
FFFF00
FFFF00
FFFF00
FFFF00
FFFF00
003C00
003C00
003C00
003C00
003C00
003C00
00F000
00F000
00F000
00F000
00F000
00F000
03FC00
03FC00
03FC00
03FC00
03FC00
03FC00
000F00
000F00
000F00
000F00
000F00
000F00
F00F00
F00F00
F00F00
F00F00
F00F00
F00F00
3FFC00
3FFC00
3FFC00
3FFC00
3FFC00
3FFC00
000000
000000
000000
000000
000000
000000
000000
000000
000000
000000
000000
000000
ENDCHAR
STARTCHAR U+0032
ENCODING 50
SWIDTH 1000 0
BBX 18 60 0 -12
DWIDTH 18 0
BITMAP
000000
000000
000000
000000
000000
000000
3FFC00
3FFC00
3FFC00
3FFC00
3FFC00
3FFC00
F00F00
F00F00
F00F00
F00F00
F00F00
F00F00
000F00
000F00
000F00
000F00
000F00
000F00
03FC00
03FC00
03FC00
03FC00
03FC00
03FC00
3F0000
3F0000
3F0000
3F0000
3F0000
3F0000
F00000
F00000
F00000
F00000
F00000
F00000
FFFF00
FFFF00
FFFF00
FFFF00
FFFF00
FFFF00
000000
000000
000000
000000
000000
000000
000000
000000
000000
000000
000000
000000
ENDCHAR
STARTCHAR U+0031
ENCODING 49
SWIDTH 1000 0
BBX 18 60 0 -12
DWIDTH 18 0
BITMAP
000000
000000
000000
000000
000000
000000
03C000
03C000
03C000
03C000
03C000
03C000
0FC000
0FC000
0FC000
0FC000
0FC000
0FC000
3FC000
3FC000
3FC000
3FC000
3FC000
3FC000
03C000
03C000
03C000
03C000
03C000
03C000
03C000
03C000
03C000
03C000
03C000
03C000
03C000
03C000
03C000
03C000
03C000
03C000
3FFC00
3FFC00
3FFC00
3FFC00
3FFC00
3FFC00
000000
000000
000000
000000
000000
000000
000000
000000
000000
000000
000000
000000
ENDCHAR
STARTCHAR U+0030
ENCODING 48
SWIDTH 1000 0
BBX 18 60 0 -12
DWIDTH 18 0
BITMAP
000000
000000
000000
000000
000000
000000
0FF000
0FF000
0FF000
0FF000
0FF000
0FF000
3C3C00
3C3C00
3C3C00
3C3C00
3C3C00
3C3C00
F00F00
F00F00
F00F00
F00F00
F00F00
F00F00
F00F00
F00F00
F00F00
F00F00
F00F00
F00F00
F00F00
F00F00
F00F00
F00F00
F00F00
F00F00
3C3C00
3C3C00
3C3C00
3C3C00
3C3C00
3C3C00
0FF000
0FF000
0FF000
0FF000
0FF000
0FF000
000000
000000
000000
000000
000000
000000
000000
000000
000000
000000
000000
000000
ENDCHAR
STARTCHAR U+002F
ENCODING 47
SWIDTH 1000 0
BBX 18 60 0 -12
DWIDTH 18 0
BITMAP
000000
000000
000000
000000
000000
000000
000F00
000F00
000F00
000F00
000F00
000F00
003C00
003C00
003C00
003C00
003C00
003C00
00F000
00F000
00F000
00F000
00F000
00F000
03C000
03C000
03C000
03C000
03C000
03C000
0F0000
0F0000
0F0000
0F0000
0F0000
0F0000
3C0000
3C0000
3C0000
3C0000
3C0000
3C0000
F00000
F00000
F00000
F00000
F00000
F00000
000000
000000
000000
000000
000000
000000
000000
000000
000000
000000
000000
000000
ENDCHAR
STARTCHAR U+002E
ENCODING 46
SWIDTH 1000 0
BBX 18 60 0 -12
DWIDTH 18 0
BITMAP
000000
000000
000000
000000
000000
000000
000000
000000
000000
000000
000000
000000
000000
000000
000000
000000
000000
000000
000000
000000
000000
000000
000000
000000
000000
000000
000000
000000
000000
000000
000000
000000
000000
000000
000000
000000
0FC000
0FC000
0FC000
0FC000
0FC000
0FC000
0FC000
0FC000
0FC000
0FC000
0FC000
0FC000
000000
000000
000000
000000
000000
000000
000000
000000
000000
000000
000000
000000
ENDCHAR
STARTCHAR U+002D
ENCODING 45
SWIDTH 1000 0
BBX 18 60 0 -12
DWIDTH 18 0
BITMAP
000000
000000
000000
000000
000000
000000
000000
000000
000000
000000
000000
000000
000000
000000
000000
000000
000000
000000
000000
000000
000000
000000
000000
000000
FFFF00
FFFF00
FFFF00
FFFF00
FFFF00
FFFF00
000000
000000
000000
000000
000000
000000
000000
000000
000000
000000
000000
000000
000000
000000
000000
000000
000000
000000
000000
000000
000000
000000
000000
000000
000000
000000
000000
000000
000000
000000
ENDCHAR
STARTCHAR U+002C
ENCODING 44
SWIDTH 1000 0
BBX 18 60 0 -12
DWIDTH 18 0
BITMAP
000000
000000
000000
000000
000000
000000
000000
000000
000000
000000
000000
000000
000000
000000
000000
000000
000000
000000
000000
000000
000000
000000
000000
000000
000000
000000
000000
000000
000000
000000
000000
000000
000000
000000
000000
000000
0FC000
0FC000
0FC000
0FC000
0FC000
0FC000
0F0000
0F0000
0F0000
0F0000
0F0000
0F0000
3C0000
3C0000
3C0000
3C0000
3C0000
3C0000
000000
000000
000000
000000
000000
000000
ENDCHAR
STARTCHAR U+002B
ENCODING 43
SWIDTH 1000 0
BBX 18 60 0 -12
DWIDTH 18 0
BITMAP
000000
000000
000000
000000
000000
000000
000000
000000
000000
000000
000000
000000
03C000
03C000
03C000
03C000
03C000
03C000
03C000
03C000
03C000
03C000
03C000
03C000
FFFF00
FFFF00
FFFF00
FFFF00
FFFF00
FFFF00
03C000
03C000
03C000
03C000
03C000
03C000
03C000
03C000
03C000
03C000
03C000
03C000
000000
000000
000000
000000
000000
000000
000000
000000
000000
000000
000000
000000
000000
000000
000000
000000
000000
000000
ENDCHAR
STARTCHAR U+002A
ENCODING 42
SWIDTH 1000 0
BBX 18 60 0 -12
DWIDTH 18 0
BITMAP
000000
000000
000000
000000
000000
000000
000000
000000
000000
000000
000000
000000
3C3C00
3C3C00
3C3C00
3C3C00
3C3C00
3C3C00
0FF000
0FF000
0FF000
0FF000
0FF000
0FF000
FFFF00
FFFF00
FFFF00
FFFF00
FFFF00
FFFF00
0FF000
0FF000
0FF000
0FF000
0FF000
0FF000
3C3C00
3C3C00
3C3C00
3C3C00
3C3C00
3C3C00
000000
000000
000000
000000
000000
000000
000000
000000
000000
000000
000000
000000
000000
000000
000000
000000
000000
000000
ENDCHAR
STARTCHAR U+0029
ENCODING 41
SWIDTH 1000 0
BBX 18 60 0 -12
DWIDTH 18 0
BITMAP
000000
000000
000000
000000
000000
000000
0F0000
0F0000
0F0000
0F0000
0F0000
0F0000
03C000
03C000
03C000
03C000
03C000
03C000
00F000
00F000
00F000
00F000
00F000
00F000
00F000
00F000
00F000
00F000
00F000
00F000
00F000
00F000
00F000
00F000
00F000
00F000
03C000
03C000
03C000
03C000
03C000
03C000
0F0000
0F0000
0F0000
0F0000
0F0000
0F0000
000000
000000
000000
000000
000000
000000
000000
000000
000000
000000
000000
000000
ENDCHAR
STARTCHAR U+0028
ENCODING 40
SWIDTH 1000 0
BBX 18 60 0 -12
DWIDTH 18 0
BITMAP
000000
000000
000000
000000
000000
000000
00F000
00F000
00F000
00F000
00F000
00F000
03C000
03C000
03C000
03C000
03C000
03C000
0F0000
0F0000
0F0000
0F0000
0F0000
0F0000
0F0000
0F0000
0F0000
0F0000
0F0000
0F0000
0F0000
0F0000
0F0000
0F0000
0F0000
0F0000
03C000
03C000
03C000
03C000
03C000
03C000
00F000
00F000
00F000
00F000
00F000
00F000
000000
000000
000000
000000
000000
000000
000000
000000
000000
000000
000000
000000
ENDCHAR
STARTCHAR U+0027
ENCODING 39
SWIDTH 1000 0
BBX 18 60 0 -12
DWIDTH 18 0
BITMAP
000000
000000
000000
000000
000000
000000
03F000
03F000
03F000
03F000
03F000
03F000
03C000
03C000
03C000
03C000
03C000
03C000
0F0000
0F0000
0F0000
0F0000
0F0000
0F0000
000000
000000
000000
000000
000000
000000
000000
000000
000000
000000
000000
000000
000000
000000
000000
000000
000000
000000
000000
000000
000000
000000
000000
000000
000000
000000
000000
000000
000000
000000
000000
000000
000000
000000
000000
000000
ENDCHAR
STARTCHAR U+0026
ENCODING 38
SWIDTH 1000 0
BBX 18 60 0 -12
DWIDTH 18 0
BITMAP
000000
000000
000000
000000
000000
000000
3FC000
3FC000
3FC000
3FC000
3FC000
3FC000
F0F000
F0F000
F0F000
F0F000
F0F000
F0F000
F0F000
F0F000
F0F000
F0F000
F0F000
F0F000
3FC000
3FC000
3FC000
3FC000
3FC000
3FC000
F0FF00
F0FF00
F0FF00
F0FF00
F0FF00
F0FF00
F03C00
F03C00
F03C00
F03C00
F03C00
F03C00
3FFF00
3FFF00
3FFF00
3FFF00
3FFF00
3FFF00
000000
000000
000000
000000
000000
000000
000000
000000
000000
000000
000000
000000
ENDCHAR
STARTCHAR U+0025
ENCODING 37
SWIDTH 1000 0
BBX 18 60 0 -12
DWIDTH 18 0
BITMAP
000000
000000
000000
000000
000000
000000
3C0F00
3C0F00
3C0F00
3C0F00
3C0F00
3C0F00
FF3C00
FF3C00
FF3C00
FF3C00
FF3C00
FF3C00
3CF000
3CF000
3CF000
3CF000
3CF000
3CF000
03C000
03C000
03C000
03C000
03C000
03C000
0F3C00
0F3C00
0F3C00
0F3C00
0F3C00
0F3C00
3CFF00
3CFF00
3CFF00
3CFF00
3CFF00
3CFF00
F03C00
F03C00
F03C00
F03C00
F03C00
F03C00
000000
000000
000000
000000
000000
000000
000000
000000
000000
000000
000000
000000
ENDCHAR
STARTCHAR U+0024
ENCODING 36
SWIDTH 1000 0
BBX 18 60 0 -12
DWIDTH 18 0
BITMAP
000000
000000
000000
000000
000000
000000
03C000
03C000
03C000
03C000
03C000
03C000
3FFC00
3FFC00
3FFC00
3FFC00
3FFC00
3FFC00
F3C000
F3C000
F3C000
F3C000
F3C000
F3C000
3FFC00
3FFC00
3FFC00
3FFC00
3FFC00
3FFC00
03CF00
03CF00
03CF00
03CF00
03CF00
03CF00
3FFC00
3FFC00
3FFC00
3FFC00
3FFC00
3FFC00
03C000
03C000
03C000
03C000
03C000
03C000
000000
000000
000000
000000
000000
000000
000000
000000
000000
000000
000000
000000
ENDCHAR
STARTCHAR U+0023
ENCODING 35
SWIDTH 1000 0
BBX 18 60 0 -12
DWIDTH 18 0
BITMAP
000000
000000
000000
000000
000000
000000
3CF000
3CF000
3CF000
3CF000
3CF000
3CF000
3CF000
3CF000
3CF000
3CF000
3CF000
3CF000
FFFC00
FFFC00
FFFC00
FFFC00
FFFC00
FFFC00
3CF000
3CF000
3CF000
3CF000
3CF000
3CF000
FFFC00
FFFC00
FFFC00
FFFC00
FFFC00
FFFC00
3CF000
3CF000
3CF000
3CF000
3CF000
3CF000
3CF000
3CF000
3CF000
3CF000
3CF000
3CF000
000000
000000
000000
000000
000000
000000
000000
000000
000000
000000
000000
000000
ENDCHAR
STARTCHAR U+0022
ENCODING 34
SWIDTH 1000 0
BBX 18 60 0 -12
DWIDTH 18 0
BITMAP
000000
000000
000000
000000
000000
000000
3CF000
3CF000
3CF000
3CF000
3CF000
3CF000
3CF000
3CF000
3CF000
3CF000
3CF000
3CF000
3CF000
3CF000
3CF000
3CF000
3CF000
3CF000
000000
000000
000000
000000
000000
000000
000000
000000
000000
000000
000000
000000
000000
000000
000000
000000
000000
000000
000000
000000
000000
000000
000000
000000
000000
000000
000000
000000
000000
000000
000000
000000
000000
000000
000000
000000
ENDCHAR
STARTCHAR U+0021
ENCODING 33
SWIDTH 1000 0
BBX 18 60 0 -12
DWIDTH 18 0
BITMAP
000000
000000
000000
000000
000000
000000
03C000
03C000
03C000
03C000
03C000
03C000
03C000
03C000
03C000
03C000
03C000
03C000
03C000
03C000
03C000
03C000
03C000
03C000
03C000
03C000
03C000
03C000
03C000
03C000
03C000
03C000
03C000
03C000
03C000
03C000
000000
000000
000000
000000
000000
000000
03C000
03C000
03C000
03C000
03C000
03C000
000000
000000
000000
000000
000000
000000
000000
000000
000000
000000
000000
000000
ENDCHAR
STARTCHAR U+2E2E
ENCODING 11822
SWIDTH 1000 0
BBX 18 60 0 -12
DWIDTH 18 0
BITMAP
000000
000000
000000
000000
000000
000000
3FFC00
3FFC00
3FFC00
3FFC00
3FFC00
3FFC00
F00F00
F00F00
F00F00
F00F00
F00F00
F00F00
3F0000
3F0000
3F0000
3F0000
3F0000
3F0000
03C000
03C000
03C000
03C000
03C000
03C000
03C000
03C000
03C000
03C000
03C000
03C000
000000
000000
000000
000000
000000
000000
03C000
03C000
03C000
03C000
03C000
03C000
000000
000000
000000
000000
000000
000000
000000
000000
000000
000000
000000
000000
ENDCHAR
STARTCHAR U+00b7
ENCODING 183
SWIDTH 1000 0
BBX 18 60 0 -12
DWIDTH 18 0
BITMAP
000000
000000
000000
000000
000000
000000
000000
000000
000000
000000
000000
000000
000000
000000
000000
000000
000000
000000
000000
000000
000000
000000
000000
000000
03C000
03C000
03C000
03C000
03C000
03C000
000000
000000
000000
000000
000000
000000
000000
000000
000000
000000
000000
000000
000000
000000
000000
000000
000000
000000
000000
000000
000000
000000
000000
000000
000000
000000
000000
000000
000000
000000
ENDCHAR
STARTCHAR U+00A3
ENCODING 163
SWIDTH 1000 0
BBX 18 60 0 -12
DWIDTH 18 0
BITMAP
000000
000000
000000
000000
000000
000000
03FC00
03FC00
03FC00
03FC00
03FC00
03FC00
0F0F00
0F0F00
0F0F00
0F0F00
0F0F00
0F0F00
0F0000
0F0000
0F0000
0F0000
0F0000
0F0000
FFF000
FFF000
FFF000
FFF000
FFF000
FFF000
0F0000
0F0000
0F0000
0F0000
0F0000
0F0000
3FF000
3FF000
3FF000
3FF000
3FF000
3FF000
FF3F00
FF3F00
FF3F00
FF3F00
FF3F00
FF3F00
3C0000
3C0000
3C0000
3C0000
3C0000
3C0000
000000
000000
000000
000000
000000
000000
ENDCHAR
STARTCHAR U+2260
ENCODING 8800
SWIDTH 1000 0
BBX 18 60 0 -12
DWIDTH 18 0
BITMAP
000000
000000
000000
000000
000000
000000
000F00
000F00
000F00
000F00
000F00
000F00
003C00
003C00
003C00
003C00
003C00
003C00
FFFF00
FFFF00
FFFF00
FFFF00
FFFF00
FFFF00
03C000
03C000
03C000
03C000
03C000
03C000
FFFF00
FFFF00
FFFF00
FFFF00
FFFF00
FFFF00
3C0000
3C0000
3C0000
3C0000
3C0000
3C0000
F00000
F00000
F00000
F00000
F00000
F00000
000000
000000
000000
000000
000000
000000
000000
000000
000000
000000
000000
000000
ENDCHAR
STARTCHAR U+03C0
ENCODING 960
SWIDTH 1000 0
BBX 18 60 0 -12
DWIDTH 18 0
BITMAP
000000
000000
000000
000000
000000
000000
000000
000000
000000
000000
000000
000000
000000
000000
000000
000000
000000
000000
FFFF00
FFFF00
FFFF00
FFFF00
FFFF00
FFFF00
0F3C00
0F3C00
0F3C00
0F3C00
0F3C00
0F3C00
0F3C00
0F3C00
0F3C00
0F3C00
0F3C00
0F3C00
0F3C00
0F3C00
0F3C00
0F3C00
0F3C00
0F3C00
3C3C00
3C3C00
3C3C00
3C3C00
3C3C00
3C3C00
000000
000000
000000
000000
000000
000000
000000
000000
000000
000000
000000
000000
ENDCHAR
STARTCHAR U+2265
ENCODING 8805
SWIDTH 1000 0
BBX 18 60 0 -12
DWIDTH 18 0
BITMAP
000000
000000
000000
000000
000000
000000
F00000
F00000
F00000
F00000
F00000
F00000
0F0000
0F0000
0F0000
0F0000
0F0000
0F0000
00F000
00F000
00F000
00F000
00F000
00F000
000F00
000F00
000F00
000F00
000F00
000F00
00F000
00F000
00F000
00F000
00F000
00F000
0F0000
0F0000
0F0000
0F0000
0F0000
0F0000
F00000
F00000
F00000
F00000
F00000
F00000
FFFF00
FFFF00
FFFF00
FFFF00
FFFF00
FFFF00
000000
000000
000000
000000
000000
000000
ENDCHAR
STARTCHAR U+2264
ENCODING 8804
SWIDTH 1000 0
BBX 18 60 0 -12
DWIDTH 18 0
BITMAP
000000
000000
000000
000000
000000
000000
000F00
000F00
000F00
000F00
000F00
000F00
00F000
00F000
00F000
00F000
00F000
00F000
0F0000
0F0000
0F0000
0F0000
0F0000
0F0000
F00000
F00000
F00000
F00000
F00000
F00000
0F0000
0F0000
0F0000
0F0000
0F0000
0F0000
00F000
00F000
00F000
00F000
00F000
00F000
000F00
000F00
000F00
000F00
000F00
000F00
FFFF00
FFFF00
FFFF00
FFFF00
FFFF00
FFFF00
000000
000000
000000
000000
000000
000000
ENDCHAR
STARTCHAR U+2502
ENCODING 9474
SWIDTH 1000 0
BBX 18 60 0 -12
DWIDTH 18 0
BITMAP
03C000
03C000
03C000
03C000
03C000
03C000
03C000
03C000
03C000
03C000
03C000
03C000
03C000
03C000
03C000
03C000
03C000
03C000
03C000
03C000
03C000
03C000
03C000
03C000
03C000
03C000
03C000
03C000
03C000
03C000
03C000
03C000
03C000
03C000
03C000
03C000
03C000
03C000
03C000
03C000
03C000
03C000
03C000
03C000
03C000
03C000
03C000
03C000
03C000
03C000
03C000
03C000
03C000
03C000
03C000
03C000
03C000
03C000
03C000
03C000
ENDCHAR
STARTCHAR U+253C
ENCODING 9532
SWIDTH 1000 0
BBX 18 60 0 -12
DWIDTH 18 0
BITMAP
000000
000000
000000
000000
000000
000000
000000
000000
000000
000000
000000
000000
000000
000000
000000
000000
000000
000000
000000
000000
000000
000000
000000
000000
FFFFC0
FFFFC0
FFFFC0
FFFFC0
FFFFC0
FFFFC0
03C000
03C000
03C000
03C000
03C000
03C000
03C000
03C000
03C000
03C000
03C000
03C000
03C000
03C000
03C000
03C000
03C000
03C000
03C000
03C000
03C000
03C000
03C000
03C000
03C000
03C000
03C000
03C000
03C000
03C000
ENDCHAR
STARTCHAR U+2534
ENCODING 9524
SWIDTH 1000 0
BBX 18 60 0 -12
DWIDTH 18 0
BITMAP
03C000
03C000
03C000
03C000
03C000
03C000
03C000
03C000
03C000
03C000
03C000
03C000
03C000
03C000
03C000
03C000
03C000
03C000
03C000
03C000
03C000
03C000
03C000
03C000
FFFFC0
FFFFC0
FFFFC0
FFFFC0
FFFFC0
FFFFC0
000000
000000
000000
000000
000000
000000
000000
000000
000000
000000
000000
000000
000000
000000
000000
000000
000000
000000
000000
000000
000000
000000
000000
000000
000000
000000
000000
000000
000000
000000
ENDCHAR
STARTCHAR U+2524
ENCODING 9508
SWIDTH 1000 0
BBX 18 60 0 -12
DWIDTH 18 0
BITMAP
03C000
03C000
03C000
03C000
03C000
03C000
03C000
03C000
03C000
03C000
03C000
03C000
03C000
03C000
03C000
03C000
03C000
03C000
03C000
03C000
03C000
03C000
03C000
03C000
FFC000
FFC000
FFC000
FFC000
FFC000
FFC000
03C000
03C000
03C000
03C000
03C000
03C000
03C000
03C000
03C000
03C000
03C000
03C000
03C000
03C000
03C000
03C000
03C000
03C000
03C000
03C000
03C000
03C000
03C000
03C000
03C000
03C000
03C000
03C000
03C000
03C000
ENDCHAR
STARTCHAR U+251C
ENCODING 9500
SWIDTH 1000 0
BBX 18 60 0 -12
DWIDTH 18 0
BITMAP
03C000
03C000
03C000
03C000
03C000
03C000
03C000
03C000
03C000
03C000
03C000
03C000
03C000
03C000
03C000
03C000
03C000
03C000
03C000
03C000
03C000
03C000
03C000
03C000
03FFC0
03FFC0
03FFC0
03FFC0
03FFC0
03FFC0
03C000
03C000
03C000
03C000
03C000
03C000
03C000
03C000
03C000
03C000
03C000
03C000
03C000
03C000
03C000
03C000
03C000
03C000
03C000
03C000
03C000
03C000
03C000
03C000
03C000
03C000
03C000
03C000
03C000
03C000
ENDCHAR
STARTCHAR U+23BD
ENCODING 9149
SWIDTH 1000 0
BBX 18 60 0 -12
DWIDTH 18 0
BITMAP
000000
000000
000000
000000
000000
000000
000000
000000
000000
000000
000000
000000
000000
000000
000000
000000
000000
000000
000000
000000
000000
000000
000000
000000
000000
000000
000000
000000
000000
000000
000000
000000
000000
000000
000000
000000
000000
000000
000000
000000
000000
000000
000000
000000
000000
000000
000000
000000
FFFFC0
FFFFC0
FFFFC0
FFFFC0
FFFFC0
FFFFC0
000000
000000
000000
000000
000000
000000
ENDCHAR
STARTCHAR U+23BC
ENCODING 9148
SWIDTH 1000 0
BBX 18 60 0 -12
DWIDTH 18 0
BITMAP
000000
000000
000000
000000
000000
000000
000000
000000
000000
000000
000000
000000
000000
000000
000000
000000
000000
000000
000000
000000
000000
000000
000000
000000
000000
000000
000000
000000
000000
000000
000000
000000
000000
000000
000000
000000
FFFFC0
FFFFC0
FFFFC0
FFFFC0
FFFFC0
FFFFC0
000000
000000
000000
000000
000000
000000
000000
000000
000000
000000
000000
000000
000000
000000
000000
000000
000000
000000
ENDCHAR
STARTCHAR U+2500
ENCODING 9472
SWIDTH 1000 0
BBX 18 60 0 -12
DWIDTH 18 0
BITMAP
000000
000000
000000
000000
000000
000000
000000
000000
000000
000000
000000
000000
000000
000000
000000
000000
000000
000000
000000
000000
000000
000000
000000
000000
FFFFC0
FFFFC0
FFFFC0
FFFFC0
FFFFC0
FFFFC0
000000
000000
000000
000000
000000
000000
000000
000000
000000
000000
000000
000000
000000
000000
000000
000000
000000
000000
000000
000000
000000
000000
000000
000000
000000
000000
000000
000000
000000
000000
ENDCHAR
STARTCHAR U+23BB
ENCODING 9147
SWIDTH 1000 0
BBX 18 60 0 -12
DWIDTH 18 0
BITMAP
000000
000000
000000
000000
000000
000000
000000
000000
000000
000000
000000
000000
FFFFC0
FFFFC0
FFFFC0
FFFFC0
FFFFC0
FFFFC0
000000
000000
000000
000000
000000
000000
000000
000000
000000
000000
000000
000000
000000
000000
000000
000000
000000
000000
000000
000000
000000
000000
000000
000000
000000
000000
000000
000000
000000
000000
000000
000000
000000
000000
000000
000000
000000
000000
000000
000000
000000
000000
ENDCHAR
STARTCHAR U+23BA
ENCODING 9146
SWIDTH 1000 0
BBX 18 60 0 -12
DWIDTH 18 0
BITMAP
FFFFC0
FFFFC0
FFFFC0
FFFFC0
FFFFC0
FFFFC0
000000
000000
000000
000000
000000
000000
000000
000000
000000
000000
000000
000000
000000
000000
000000
000000
000000
000000
000000
000000
000000
000000
000000
000000
000000
000000
000000
000000
000000
000000
000000
000000
000000
000000
000000
000000
000000
000000
000000
000000
000000
000000
000000
000000
000000
000000
000000
000000
000000
000000
000000
000000
000000
000000
ENDCHAR
STARTCHAR U+253C
ENCODING 9532
SWIDTH 1000 0
BBX 18 60 0 -12
DWIDTH 18 0
BITMAP
03C000
03C000
03C000
03C000
03C000
03C000
03C000
03C000
03C000
03C000
03C000
03C000
03C000
03C000
03C000
03C000
03C000
03C000
03C000
03C000
03C000
03C000
03C000
03C000
FFFFC0
FFFFC0
FFFFC0
FFFFC0
FFFFC0
FFFFC0
03C000
03C000
03C000
03C000
03C000
03C000
03C000
03C000
03C000
03C000
03C000
03C000
03C000
03C000
03C000
03C000
03C000
03C000
03C000
03C000
03C000
03C000
03C000
03C000
03C000
03C000
03C000
03C000
03C000
03C000
ENDCHAR
STARTCHAR U+2514
ENCODING 9492
SWIDTH 1000 0
BBX 18 60 0 -12
DWIDTH 18 0
BITMAP
03C000
03C000
03C000
03C000
03C000
03C000
03C000
03C000
03C000
03C000
03C000
03C000
03C000
03C000
03C000
03C000
03C000
03C000
03C000
03C000
03C000
03C000
03C000
03C000
03FFC0
03FFC0
03FFC0
03FFC0
03FFC0
03FFC0
000000
000000
000000
000000
000000
000000
000000
000000
000000
000000
000000
000000
000000
000000
000000
000000
000000
000000
000000
000000
000000
000000
000000
000000
000000
000000
000000
000000
000000
000000
ENDCHAR
STARTCHAR U+250C
ENCODING 9484
SWIDTH 1000 0
BBX 18 60 0 -12
DWIDTH 18 0
BITMAP
000000
000000
000000
000000
000000
000000
000000
000000
000000
000000
000000
000000
000000
000000
000000
000000
000000
000000
000000
000000
000000
000000
000000
000000
03FFC0
03FFC0
03FFC0
03FFC0
03FFC0
03FFC0
03C000
03C000
03C000
03C000
03C000
03C000
03C000
03C000
03C000
03C000
03C000
03C000
03C000
03C000
03C000
03C000
03C000
03C000
03C000
03C000
03C000
03C000
03C000
03C000
03C000
03C000
03C000
03C000
03C000
03C000
ENDCHAR
STARTCHAR U+2510
ENCODING 9488
SWIDTH 1000 0
BBX 18 60 0 -12
DWIDTH 18 0
BITMAP
000000
000000
000000
000000
000000
000000
000000
000000
000000
000000
000000
000000
000000
000000
000000
000000
000000
000000
000000
000000
000000
000000
000000
000000
FFC000
FFC000
FFC000
FFC000
FFC000
FFC000
03C000
03C000
03C000
03C000
03C000
03C000
03C000
03C000
03C000
03C000
03C000
03C000
03C000
03C000
03C000
03C000
03C000
03C000
03C000
03C000
03C000
03C000
03C000
03C000
03C000
03C000
03C000
03C000
03C000
03C000
ENDCHAR
STARTCHAR U+2518
ENCODING 9496
SWIDTH 1000 0
BBX 18 60 0 -12
DWIDTH 18 0
BITMAP
03C000
03C000
03C000
03C000
03C000
03C000
03C000
03C000
03C000
03C000
03C000
03C000
03C000
03C000
03C000
03C000
03C000
03C000
03C000
03C000
03C000
03C000
03C000
03C000
FFC000
FFC000
FFC000
FFC000
FFC000
FFC000
000000
000000
000000
000000
000000
000000
000000
000000
000000
000000
000000
000000
000000
000000
000000
000000
000000
000000
000000
000000
000000
000000
000000
000000
000000
000000
000000
000000
000000
000000
ENDCHAR
STARTCHAR U+240B
ENCODING 9227
SWIDTH 1000 0
BBX 18 60 0 -12
DWIDTH 18 0
BITMAP
000000
000000
000000
000000
000000
000000
F0F000
F0F000
F0F000
F0F000
F0F000
F0F000
F0F000
F0F000
F0F000
F0F000
F0F000
F0F000
3FC000
3FC000
3FC000
3FC000
3FC000
3FC000
3FC000
3FC000
3FC000
3FC000
3FC000
3FC000
0FFF00
0FFF00
0FFF00
0FFF00
0FFF00
0FFF00
00F000
00F000
00F000
00F000
00F000
00F000
00F000
00F000
00F000
00F000
00F000
00F000
00F000
00F000
00F000
00F000
00F000
00F000
00F000
00F000
00F000
00F000
00F000
00F000
ENDCHAR
STARTCHAR U+2424
ENCODING 9252
SWIDTH 1000 0
BBX 18 60 0 -12
DWIDTH 18 0
BITMAP
000000
000000
000000
000000
000000
000000
F0F000
F0F000
F0F000
F0F000
F0F000
F0F000
FCF000
FCF000
FCF000
FCF000
FCF000
FCF000
FFF000
FFF000
FFF000
FFF000
FFF000
FFF000
F3F000
F3F000
F3F000
F3F000
F3F000
F3F000
F3F000
F3F000
F3F000
F3F000
F3F000
F3F000
03C000
03C000
03C000
03C000
03C000
03C000
03C000
03C000
03C000
03C000
03C000
03C000
03C000
03C000
03C000
03C000
03C000
03C000
03FF00
03FF00
03FF00
03FF00
03FF00
03FF00
ENDCHAR
STARTCHAR U+00B1
ENCODING 177
SWIDTH 1000 0
BBX 18 60 0 -12
DWIDTH 18 0
BITMAP
000000
000000
000000
000000
000000
000000
000000
000000
000000
000000
000000
000000
03C000
03C000
03C000
03C000
03C000
03C000
03C000
03C000
03C000
03C000
03C000
03C000
FFFF00
FFFF00
FFFF00
FFFF00
FFFF00
FFFF00
03C000
03C000
03C000
03C000
03C000
03C000
03C000
03C000
03C000
03C000
03C000
03C000
FFFF00
FFFF00
FFFF00
FFFF00
FFFF00
FFFF00
000000
000000
000000
000000
000000
000000
000000
000000
000000
000000
000000
000000
ENDCHAR
STARTCHAR U+00B0
ENCODING 176
SWIDTH 1000 0
BBX 18 60 0 -12
DWIDTH 18 0
BITMAP
000000
000000
000000
000000
000000
000000
0FF000
0FF000
0FF000
0FF000
0FF000
0FF000
3C3C00
3C3C00
3C3C00
3C3C00
3C3C00
3C3C00
0FF000
0FF000
0FF000
0FF000
0FF000
0FF000
000000
000000
000000
000000
000000
000000
000000
000000
000000
000000
000000
000000
000000
000000
000000
000000
000000
000000
000000
000000
000000
000000
000000
000000
000000
000000
000000
000000
000000
000000
000000
000000
000000
000000
000000
000000
ENDCHAR
STARTCHAR U+240A
ENCODING 9226
SWIDTH 1000 0
BBX 18 60 0 -12
DWIDTH 18 0
BITMAP
000000
000000
000000
000000
000000
000000
F00000
F00000
F00000
F00000
F00000
F00000
F00000
F00000
F00000
F00000
F00000
F00000
F00000
F00000
F00000
F00000
F00000
F00000
F00000
F00000
F00000
F00000
F00000
F00000
FFFF00
FFFF00
FFFF00
FFFF00
FFFF00
FFFF00
03C000
03C000
03C000
03C000
03C000
03C000
03FC00
03FC00
03FC00
03FC00
03FC00
03FC00
03C000
03C000
03C000
03C000
03C000
03C000
03C000
03C000
03C000
03C000
03C000
03C000
ENDCHAR
STARTCHAR U+240D
ENCODING 9229
SWIDTH 1000 0
BBX 18 60 0 -12
DWIDTH 18 0
BITMAP
000000
000000
000000
000000
000000
000000
3FC000
3FC000
3FC000
3FC000
3FC000
3FC000
F00000
F00000
F00000
F00000
F00000
F00000
F00000
F00000
F00000
F00000
F00000
F00000
F00000
F00000
F00000
F00000
F00000
F00000
3FFC00
3FFC00
3FFC00
3FFC00
3FFC00
3FFC00
03CF00
03CF00
03CF00
03CF00
03CF00
03CF00
03FC00
03FC00
03FC00
03FC00
03FC00
03FC00
03CF00
03CF00
03CF00
03CF00
03CF00
03CF00
03CF00
03CF00
03CF00
03CF00
03CF00
03CF00
ENDCHAR
STARTCHAR U+240C
ENCODING 9228
SWIDTH 1000 0
BBX 18 60 0 -12
DWIDTH 18 0
BITMAP
000000
000000
000000
000000
000000
000000
FFC000
FFC000
FFC000
FFC000
FFC000
FFC000
F00000
F00000
F00000
F00000
F00000
F00000
FF0000
FF0000
FF0000
FF0000
FF0000
FF0000
F00000
F00000
F00000
F00000
F00000
F00000
F3FF00
F3FF00
F3FF00
F3FF00
F3FF00
F3FF00
03C000
03C000
03C000
03C000
03C000
03C000
03FC00
03FC00
03FC00
03FC00
03FC00
03FC00
03C000
03C000
03C000
03C000
03C000
03C000
03C000
03C000
03C000
03C000
03C000
03C000
ENDCHAR
STARTCHAR U+2409
ENCODING 9225
SWIDTH 1000 0
BBX 18 60 0 -12
DWIDTH 18 0
BITMAP
000000
000000
000000
000000
000000
000000
F3C000
F3C000
F3C000
F3C000
F3C000
F3C000
F3C000
F3C000
F3C000
F3C000
F3C000
F3C000
FFC000
FFC000
FFC000
FFC000
FFC000
FFC000
F3C000
F3C000
F3C000
F3C000
F3C000
F3C000
FFFF00
FFFF00
FFFF00
FFFF00
FFFF00
FFFF00
00F000
00F000
00F000
00F000
00F000
00F000
00F000
00F000
00F000
00F000
00F000
00F000
00F000
00F000
00F000
00F000
00F000
00F000
00F000
00F000
00F000
00F000
00F000
00F000
ENDCHAR
STARTCHAR U+2592
ENCODING 9618
SWIDTH 1000 0
BBX 18 60 0 -12
DWIDTH 18 0
BITMAP
000000
000000
000000
000000
000000
000000
F3CF00
F3CF00
F3CF00
F3CF00
F3CF00
F3CF00
3C3C00
3C3C00
3C3C00
3C3C00
3C3C00
3C3C00
F3CF00
F3CF00
F3CF00
F3CF00
F3CF00
F3CF00
3C3C00
3C3C00
3C3C00
3C3C00
3C3C00
3C3C00
F3CF00
F3CF00
F3CF00
F3CF00
F3CF00
F3CF00
3C3C00
3C3C00
3C3C00
3C3C00
3C3C00
3C3C00
F3CF00
F3CF00
F3CF00
F3CF00
F3CF00
F3CF00
000000
000000
000000
000000
000000
000000
000000
000000
000000
000000
000000
000000
ENDCHAR
STARTCHAR U+25C6
ENCODING 9670
SWIDTH 1000 0
BBX 18 60 0 -12
DWIDTH 18 0
BITMAP
000000
000000
000000
000000
000000
000000
03C000
03C000
03C000
03C000
03C000
03C000
0FF000
0FF000
0FF000
0FF000
0FF000
0FF000
3FFC00
3FFC00
3FFC00
3FFC00
3FFC00
3FFC00
FFFF00
FFFF00
FFFF00
FFFF00
FFFF00
FFFF00
3FFC00
3FFC00
3FFC00
3FFC00
3FFC00
3FFC00
0FF000
0FF000
0FF000
0FF000
0FF000
0FF000
03C000
03C000
03C000
03C000
03C000
03C000
000000
000000
000000
000000
000000
000000
000000
000000
000000
000000
000000
000000
ENDCHAR
STARTCHAR U+0020
ENCODING 32
SWIDTH 1000 0
BBX 18 60 0 -12
DWIDTH 18 0
BITMAP
000000
000000
000000
000000
000000
000000
000000
000000
000000
000000
000000
000000
000000
000000
000000
000000
000000
000000
000000
000000
000000
000000
000000
000000
000000
000000
000000
000000
000000
000000
000000
000000
000000
000000
000000
000000
000000
000000
000000
000000
000000
000000
000000
000000
000000
000000
000000
000000
000000
000000
000000
000000
000000
000000
000000
000000
000000
000000
000000
000000
ENDCHAR
ENDFONT
